<?xml version="1.0" standalone="no"?>
<!DOCTYPE svg PUBLIC "-//W3C//DTD SVG 20010904//EN"
 "http://www.w3.org/TR/2001/REC-SVG-20010904/DTD/svg10.dtd">
<svg version="1.0" xmlns="http://www.w3.org/2000/svg"
 width="1000.000000pt" height="750.000000pt" viewBox="0 0 1000.000000 750.000000"
 preserveAspectRatio="xMidYMid meet">

<g transform="translate(0.000000,750.000000) scale(0.100000,-0.100000)"
fill="#000000" stroke="none">
<path d="M1 7090 c1 -233 5 -407 10 -404 5 3 9 0 9 -5 0 -6 9 -11 19 -11 11 0
23 -5 26 -10 5 -8 11 -7 21 1 17 14 19 -2 1 -21 -10 -12 -9 -12 6 0 11 8 16
21 14 32 -3 10 -1 16 4 12 5 -3 9 -12 9 -20 0 -8 4 -12 10 -9 6 3 7 -1 4 -9
-3 -9 -9 -14 -13 -11 -4 2 -8 -3 -8 -11 0 -11 7 -8 26 8 14 13 20 15 13 6 -10
-12 -11 -22 -3 -37 8 -14 8 -22 1 -26 -8 -5 -8 -11 -1 -19 6 -7 8 -16 4 -20
-4 -4 1 -4 11 0 10 4 14 10 9 13 -15 11 -15 34 1 28 11 -4 13 0 10 18 -2 13 0
26 6 30 6 3 7 -1 4 -10 -5 -11 -2 -14 12 -9 14 4 16 3 5 -4 -7 -5 -14 -25 -16
-43 -4 -54 -5 -55 -16 -39 -9 13 -10 13 -6 0 5 -19 27 -20 50 -2 9 9 20 12 24
8 4 -4 1 -11 -7 -16 -18 -11 -21 -37 -4 -37 8 0 14 7 15 16 0 11 2 12 6 3 6
-15 -16 -44 -27 -37 -5 3 -5 -5 -2 -17 5 -19 7 -20 10 -5 2 9 8 15 13 11 5 -3
7 -10 4 -15 -8 -12 26 1 46 18 9 7 15 24 14 36 -1 12 0 14 2 4 2 -9 8 -15 13
-12 5 3 12 1 15 -5 4 -6 1 -9 -7 -8 -7 2 -14 -7 -16 -19 -2 -14 2 -23 10 -23
10 0 9 -3 -2 -11 -12 -9 -11 -10 7 -6 16 4 20 1 16 -11 -4 -10 -2 -13 5 -8 19
11 14 34 -8 41 -11 4 -18 11 -14 16 4 6 11 6 20 -2 11 -9 14 -8 14 2 1 9 4 8
11 -4 6 -9 15 -14 21 -11 7 4 8 2 4 -5 -4 -6 -12 -8 -18 -5 -8 5 -9 1 -5 -10
4 -10 7 -20 7 -22 0 -2 7 -4 16 -4 8 0 13 4 10 8 -2 4 8 7 22 6 15 0 30 3 33
8 3 5 9 2 12 -7 4 -9 3 -14 -1 -11 -5 3 -9 -1 -9 -7 0 -9 11 -12 31 -9 29 5
30 4 16 -13 -14 -17 -14 -17 8 -4 12 8 22 17 22 22 0 4 -6 5 -12 1 -10 -6 -10
-5 -1 8 7 8 9 19 5 24 -4 4 1 2 11 -5 17 -13 23 -6 18 22 -1 5 3 6 8 2 6 -3 8
-13 5 -23 -5 -14 -2 -13 11 3 16 20 16 19 11 -7 -3 -20 1 -30 17 -41 26 -17
47 -12 47 11 -1 15 -3 14 -16 -3 -10 -12 -14 -14 -12 -5 3 8 -2 21 -11 28 -9
8 -11 11 -4 8 6 -4 14 2 16 11 3 13 5 12 6 -5 0 -13 5 -20 11 -17 6 4 8 11 5
16 -4 5 1 9 11 9 13 0 14 -3 5 -13 -6 -8 -8 -17 -4 -20 9 -9 25 -9 20 1 -3 4
0 16 4 27 9 18 9 18 5 -2 -5 -27 9 -40 18 -17 3 9 13 14 20 11 8 -3 16 -1 19
6 2 6 6 4 10 -5 4 -13 1 -16 -19 -12 -22 4 -23 3 -12 -15 8 -14 16 -17 24 -10
8 7 13 6 16 -1 5 -17 38 0 38 19 0 13 -2 13 -9 2 -6 -10 -10 -10 -16 -1 -4 6
-3 16 3 22 6 6 12 6 16 -1 4 -5 13 -8 21 -5 8 4 12 11 8 17 -3 6 -1 7 5 3 15
-9 3 -38 -12 -29 -7 3 -6 1 1 -7 11 -12 15 -11 28 6 14 18 15 17 6 -8 -8 -22
-7 -26 7 -23 9 2 19 4 22 4 3 1 -2 6 -10 11 -9 6 -10 10 -3 10 11 0 40 -41 34
-48 -2 -2 0 -6 3 -8 3 -2 4 -1 1 3 -3 3 0 12 6 20 8 9 8 13 1 13 -7 0 -9 7 -5
17 4 11 3 14 -5 9 -8 -5 -10 -1 -5 10 6 16 8 15 16 -4 6 -12 17 -22 26 -22 14
0 14 2 1 10 -8 5 -10 10 -5 10 6 0 3 5 -5 10 -12 7 -10 9 7 8 14 -2 19 -7 15
-17 -3 -9 -1 -12 6 -7 20 12 14 -2 -10 -24 -15 -14 -17 -19 -7 -15 10 4 20 1
24 -5 5 -8 11 -7 23 2 9 7 13 8 10 3 -10 -17 6 -35 22 -25 11 7 11 11 1 24
-10 12 -10 16 -2 16 7 0 9 5 5 13 -6 9 -5 9 8 -1 13 -10 15 -9 12 14 -1 14 1
23 4 19 4 -3 7 -14 7 -23 0 -9 5 -17 10 -17 19 0 34 -16 29 -29 -7 -18 16 -32
26 -16 10 16 11 16 39 1 19 -11 22 -11 18 1 -2 7 -9 12 -15 11 -12 -3 -10 23
3 34 4 4 5 2 1 -4 -8 -14 -6 -15 34 -17 14 0 28 -5 32 -11 4 -5 6 0 5 13 -1
24 -8 27 -23 12 -6 -6 -15 -5 -24 1 -13 9 -13 10 1 6 9 -3 21 -1 27 5 8 8 15
8 26 -1 9 -7 15 -16 14 -19 -3 -25 4 -34 23 -29 28 7 49 -2 49 -21 0 -21 10
-10 15 18 3 16 0 20 -11 16 -9 -3 -12 -2 -9 5 4 5 12 8 18 6 7 -2 19 -1 28 4
10 5 16 3 16 -6 0 -7 -6 -11 -13 -8 -8 3 -11 -2 -10 -13 2 -10 9 -20 16 -22 8
-3 10 0 6 7 -4 7 -2 10 5 9 7 -2 13 2 14 9 0 6 3 14 7 18 9 9 5 -17 -6 -33
-13 -22 3 -27 20 -6 8 10 13 13 9 7 -7 -15 6 -17 23 -3 9 7 9 7 2 -2 -14 -17
-12 -28 6 -28 8 0 13 4 9 9 -3 5 -1 12 5 16 6 4 9 9 6 13 -2 4 6 16 16 27 20
20 20 20 4 -13 -15 -29 -15 -33 -1 -38 8 -3 13 -9 10 -13 -2 -4 3 -8 11 -8 8
0 13 6 10 13 -3 8 0 16 6 20 6 4 8 3 5 -3 -14 -22 36 -39 51 -18 4 6 16 17 27
25 20 14 20 14 2 -7 -20 -23 -16 -43 10 -43 10 0 14 6 10 20 -3 11 -1 20 5 20
5 0 6 6 2 13 -4 7 -3 9 2 4 5 -5 10 -13 10 -18 1 -5 2 -12 3 -15 0 -4 8 -1 17
6 12 11 15 11 12 -1 -2 -8 -6 -16 -10 -19 -4 -3 -3 -12 1 -19 12 -19 34 -3 28
19 -3 12 0 17 8 14 7 -3 11 -14 8 -25 -3 -10 0 -19 6 -19 6 0 11 4 11 10 0 5
6 7 14 4 9 -4 13 2 11 21 -3 21 -1 24 10 15 9 -8 15 -8 20 0 3 5 1 10 -6 10
-7 0 -9 3 -6 7 4 3 16 -2 27 -12 19 -18 26 -11 21 19 -1 5 4 4 12 -3 8 -6 14
-25 13 -41 -1 -16 2 -27 6 -24 4 3 8 0 8 -5 0 -6 7 -11 15 -11 16 0 19 9 9 35
-5 13 -8 14 -15 3 -6 -9 -9 -9 -9 -1 0 6 4 14 9 18 11 6 33 -28 30 -48 -1 -6
-1 -21 0 -31 1 -19 1 -19 14 -1 8 10 19 15 25 11 7 -4 12 -2 12 5 0 8 4 8 15
-1 9 -8 15 -9 15 -2 0 6 -4 14 -10 17 -5 3 -10 12 -10 18 0 8 3 7 9 -2 7 -11
10 -10 18 3 8 15 11 14 21 -9 9 -20 9 -25 -2 -25 -17 0 -29 -27 -15 -35 5 -4
12 1 15 10 6 14 9 14 16 3 7 -9 8 0 5 27 -3 22 -3 35 0 28 2 -7 12 -9 21 -6
15 4 15 3 2 -6 -13 -10 -13 -12 0 -21 8 -5 25 -10 38 -10 13 0 20 -4 17 -10
-3 -5 3 -10 15 -10 12 0 18 4 15 10 -4 6 1 7 11 3 11 -4 15 -3 10 5 -3 6 -1
14 5 18 8 5 9 3 5 -5 -10 -15 25 -11 36 4 5 6 8 5 8 -4 0 -10 3 -11 13 -2 10
8 14 7 14 -4 0 -8 -4 -12 -9 -9 -4 3 -8 -1 -8 -8 0 -9 -3 -9 -10 2 -8 12 -9
10 -7 -7 2 -12 7 -26 12 -30 4 -5 4 -2 0 6 -6 11 -4 13 9 8 10 -4 15 -3 11 3
-13 21 17 9 40 -16 14 -15 25 -22 25 -16 0 6 3 18 7 28 5 13 3 16 -10 11 -9
-3 -19 -2 -21 2 -10 15 33 6 54 -11 22 -19 28 -10 7 12 -10 12 -9 12 4 2 9 -6
20 -8 24 -4 5 4 5 2 1 -5 -9 -17 14 -28 27 -13 9 10 9 11 -3 5 -10 -6 -8 -1 4
13 24 28 26 27 20 -3 -4 -22 -1 -25 23 -26 16 -1 32 -1 36 0 4 1 0 -11 -9 -26
-11 -19 -11 -22 -1 -10 8 9 25 17 38 16 13 0 18 -3 11 -6 -6 -2 -12 -9 -12
-14 0 -6 8 -5 20 1 11 6 19 14 16 18 -2 4 3 14 12 22 14 13 15 12 10 -2 -4
-10 2 -20 18 -28 13 -8 24 -18 24 -24 0 -5 6 -1 14 9 8 11 12 29 10 42 -5 24
11 40 22 22 5 -8 3 -9 -6 -4 -8 5 -11 3 -8 -6 3 -8 11 -13 17 -11 17 3 13 -15
-4 -22 -8 -3 -15 -10 -15 -15 0 -5 10 -4 24 2 14 7 22 18 19 27 -3 10 -1 9 7
-3 6 -9 8 -22 5 -27 -3 -6 1 -7 9 -4 9 3 13 11 10 18 -3 6 6 -1 20 -16 31 -34
34 -35 31 -3 -2 14 0 27 4 30 4 2 8 -2 9 -10 1 -8 3 -22 4 -30 2 -21 12 -19
23 6 11 24 32 26 27 3 -2 -8 5 -14 14 -14 17 0 17 -1 0 -13 -16 -12 -16 -13 3
-14 16 -1 22 6 28 35 4 20 6 41 4 46 -1 5 4 4 12 -2 8 -7 17 -9 20 -6 4 4 1
-5 -6 -20 -7 -14 -16 -26 -22 -27 -15 -1 28 -18 48 -18 10 -1 15 4 12 9 -4 6
-10 8 -15 5 -5 -3 -12 0 -16 7 -4 7 -4 10 1 6 4 -4 15 -2 23 5 10 8 13 8 9 1
-4 -7 0 -15 9 -18 8 -3 12 -10 9 -16 -10 -15 12 -12 28 5 11 11 16 12 19 3 3
-9 11 -8 30 4 19 13 25 13 25 3 0 -8 -3 -12 -7 -10 -4 2 -15 -1 -25 -8 -15
-12 -12 -13 19 -9 23 3 33 8 29 16 -4 6 1 5 10 -2 9 -8 20 -11 25 -8 6 3 13
-6 17 -21 5 -21 8 -24 16 -12 5 7 9 10 9 6 0 -4 9 -3 20 3 12 7 18 16 13 23
-4 8 -2 8 9 -1 10 -8 19 -9 22 -3 3 5 19 8 36 7 16 -1 31 3 33 8 2 6 3 3 2 -6
-4 -27 21 -43 34 -21 9 16 10 15 11 -9 0 -16 4 -28 9 -28 5 0 7 8 4 19 -3 10
0 22 6 25 7 5 8 1 4 -11 -6 -16 -4 -16 17 2 13 11 20 15 17 8 -4 -6 -3 -14 3
-18 5 -3 10 -1 10 6 0 7 3 9 6 6 4 -4 2 -13 -5 -20 -9 -11 -8 -17 4 -27 13
-11 14 -10 9 4 -3 9 -1 16 5 16 6 0 11 -9 11 -21 0 -11 4 -18 9 -14 5 3 8 18
6 33 -2 15 -2 21 1 14 3 -6 11 -9 17 -5 7 4 5 -1 -3 -12 -14 -16 -13 -17 8
-11 16 5 21 4 17 -6 -4 -9 2 -14 15 -15 11 -1 20 3 20 8 0 6 -4 7 -10 4 -6 -3
-7 1 -3 10 4 12 8 13 13 5 6 -9 9 -9 14 1 3 8 3 4 0 -8 -3 -14 -1 -23 6 -23 6
0 9 4 6 9 -3 4 1 17 9 27 14 18 14 18 9 -2 -3 -11 1 -26 8 -32 18 -15 86 -23
93 -12 3 5 -4 7 -16 5 -17 -4 -20 -2 -11 7 23 23 39 17 37 -11 -2 -24 1 -27
21 -23 14 3 21 9 17 16 -4 6 1 5 10 -2 9 -8 20 -11 25 -8 5 3 19 -4 30 -15 16
-14 22 -16 22 -6 0 16 -47 40 -61 31 -6 -3 -5 4 3 15 10 17 14 18 16 6 2 -8 8
-13 13 -10 5 4 9 1 9 -5 0 -6 5 -8 10 -5 6 4 7 12 4 18 -4 7 -3 8 2 4 5 -5 9
-16 9 -25 0 -11 7 -16 19 -14 16 3 18 -1 13 -26 -4 -21 -2 -32 8 -36 9 -3 15
1 15 10 0 8 5 12 11 9 12 -8 -8 30 -30 58 -8 9 -11 20 -8 24 4 3 7 1 7 -6 0
-7 5 -9 12 -5 7 5 8 3 3 -6 -5 -9 -1 -11 16 -6 13 3 18 3 12 0 -15 -7 -17 -34
-3 -34 6 0 10 -10 10 -22 l0 -21 20 23 c15 17 17 27 9 41 -6 13 -6 19 1 19 5
0 10 -4 10 -9 0 -14 42 -10 61 6 9 8 31 18 48 23 27 8 31 7 21 -5 -14 -17 1
-27 34 -21 14 3 28 1 31 -4 3 -5 12 -7 19 -4 7 3 16 -2 20 -12 5 -13 9 -14 21
-4 13 11 14 10 10 -2 -4 -11 2 -17 20 -20 18 -4 25 -2 22 7 -3 6 1 12 8 12 7
0 12 -7 11 -15 -1 -20 41 -23 57 -3 10 12 9 13 -2 6 -10 -5 -12 -4 -7 4 4 6
13 8 19 4 7 -4 19 -8 27 -10 10 -1 9 3 -4 13 -17 12 -18 14 -3 14 9 0 17 7 17
15 0 13 2 14 14 3 8 -7 10 -14 5 -16 -12 -5 -12 -42 1 -42 5 0 6 8 3 18 -6 15
-5 15 10 3 15 -12 17 -12 11 2 -4 11 0 15 13 13 10 -2 27 1 37 6 16 9 18 8 11
-8 -9 -24 -10 -33 -2 -69 3 -17 4 -24 1 -17 -9 20 -22 14 -32 -15 l-10 -28 -1
26 c-1 15 -8 30 -17 33 -10 4 -13 2 -8 -7 4 -6 -2 -4 -13 6 -11 9 -23 17 -26
17 -4 0 -7 -8 -7 -17 -1 -22 -25 -55 -33 -46 -4 3 -7 2 -7 -3 0 -5 -7 -18 -15
-28 -11 -14 -18 -16 -27 -8 -11 9 -55 10 -90 3 -14 -2 4 -31 21 -31 10 -1 6
-6 -12 -16 -35 -19 -30 -26 24 -30 29 -3 48 1 60 12 10 9 24 13 31 9 7 -3 3 3
-10 14 l-23 20 36 -3 c37 -3 62 -16 31 -16 -9 0 -15 -4 -11 -9 3 -5 -5 -18
-17 -28 -13 -10 -24 -25 -26 -33 -2 -8 -12 -20 -23 -28 -11 -7 -17 -17 -14
-22 3 -4 22 7 42 26 35 32 61 45 48 24 -10 -16 3 -12 43 14 43 28 84 69 80 82
-2 5 2 11 7 12 6 2 15 8 22 14 7 5 17 7 22 4 6 -4 15 3 21 14 6 11 7 20 3 20
-4 0 2 6 12 14 18 13 17 14 -8 14 -15 0 -27 -4 -27 -9 0 -5 -7 -9 -15 -9 -9 0
-15 9 -15 23 0 13 -4 27 -9 33 -6 5 -4 14 5 22 8 7 14 9 14 5 0 -4 5 -1 10 7
6 10 10 11 10 3 0 -7 5 -13 11 -13 5 0 7 6 3 13 -6 9 -5 9 8 0 18 -15 29 -7
21 15 -4 9 -2 13 4 9 6 -4 14 -1 16 5 4 10 6 10 6 1 1 -9 8 -10 27 -3 30 12
40 7 55 -23 9 -19 8 -19 -10 3 -11 14 -21 20 -21 14 0 -10 24 -37 41 -46 3 -2
14 4 23 12 21 16 49 23 40 9 -3 -5 -9 -7 -14 -4 -5 3 -11 1 -15 -5 -3 -5 3
-10 15 -10 11 0 23 7 26 15 5 13 26 -6 61 -54 2 -2 6 -1 10 3 4 4 1 12 -7 17
-13 9 -12 10 2 6 25 -8 30 4 11 27 -10 12 -3 8 15 -8 30 -28 44 -76 22 -76 -5
0 -7 8 -3 18 5 14 3 14 -10 -3 -12 -16 -18 -17 -30 -7 -8 7 -23 9 -32 5 -12
-4 -16 -3 -12 4 12 20 -3 41 -30 41 -17 0 -21 -3 -12 -9 7 -4 16 -6 20 -3 4 2
6 -7 5 -20 -1 -17 -6 -23 -18 -21 -10 2 -18 0 -18 -4 0 -13 70 -19 70 -6 0 5
5 2 11 -7 11 -19 39 -25 39 -8 0 5 3 9 8 8 4 -1 16 2 27 8 30 15 49 11 52 -11
l3 -20 -9 20 c-8 16 -10 17 -10 3 -1 -17 14 -31 37 -34 14 -2 16 7 5 22 -5 5
0 1 9 -8 16 -17 17 -18 22 -1 3 10 4 6 2 -9 -2 -15 1 -25 5 -22 5 3 9 -2 9
-10 0 -9 5 -16 11 -16 5 0 7 -5 3 -12 -4 -6 -3 -8 4 -4 6 3 13 2 16 -3 10 -15
41 -5 40 13 -3 30 40 -7 50 -43 8 -29 31 -39 31 -14 0 6 4 15 8 20 5 4 7 1 5
-7 -2 -8 4 -14 12 -15 11 0 15 -10 13 -37 -1 -21 3 -38 9 -38 6 0 8 -11 6 -25
-3 -14 -2 -28 2 -30 5 -3 7 15 6 40 -2 49 1 53 18 29 10 -13 12 -13 12 4 0 15
-6 19 -23 17 -13 -1 -23 2 -23 8 0 5 9 7 20 4 11 -3 23 -1 26 4 3 5 13 9 22 8
14 0 13 -2 -3 -9 -17 -7 -17 -9 -2 -9 15 -1 21 -12 18 -33 0 -4 5 -5 13 -2 8
3 17 0 21 -5 3 -6 11 -9 16 -6 5 4 9 1 9 -4 0 -6 4 -11 9 -11 5 0 7 9 4 20 -3
11 -9 17 -14 14 -5 -3 -9 1 -9 8 0 9 -3 9 -10 -2 -7 -11 -10 -11 -10 -2 0 7
-5 10 -10 7 -6 -3 -10 -1 -10 5 0 7 6 10 14 7 19 -8 39 16 25 30 -6 6 -5 10 5
10 15 0 16 -14 2 -36 -7 -11 -5 -13 8 -8 10 4 15 3 11 -3 -3 -6 1 -10 10 -10
10 0 13 5 9 12 -4 6 -3 8 4 4 6 -3 13 -2 17 4 3 5 1 10 -6 10 -7 0 -10 3 -6 6
3 3 10 3 16 -1 7 -4 6 -14 -5 -30 -12 -18 -13 -28 -5 -42 9 -16 10 -15 8 7 -1
19 3 24 18 25 14 0 19 -6 17 -20 -2 -17 -1 -17 7 -5 9 13 15 8 13 -10 0 -3 8
-6 18 -6 10 0 16 6 13 13 -3 7 -10 10 -15 7 -6 -4 -5 3 1 15 13 24 23 28 14 6
-3 -10 -1 -15 7 -13 7 2 14 -5 15 -15 2 -11 7 -22 10 -25 4 -4 5 0 3 8 -1 9 1
15 7 15 5 0 9 -4 7 -9 -2 -5 4 -3 13 4 13 11 15 10 9 -6 -4 -14 -3 -16 4 -5 6
8 15 10 23 5 12 -6 12 -5 1 8 -15 19 -2 31 24 21 11 -4 15 -3 10 5 -3 6 -2 14
4 17 6 4 9 1 8 -6 -2 -6 3 -14 11 -17 8 -2 11 0 7 6 -3 6 -1 14 5 18 8 5 9 3
4 -6 -6 -10 -4 -12 8 -7 8 3 20 0 26 -7 8 -9 7 -13 -4 -13 -8 0 -11 5 -8 10 4
6 1 7 -6 3 -12 -8 -7 -20 10 -22 5 -1 12 -3 17 -4 4 -1 20 -1 36 0 15 1 26 -2
23 -7 -4 -6 0 -10 8 -10 12 0 12 3 3 15 -10 12 -9 14 7 10 11 -2 19 -9 18 -15
-1 -6 6 -10 15 -10 34 0 43 -3 38 -12 -7 -11 21 -8 31 4 4 4 2 5 -4 1 -10 -5
-11 1 -6 25 5 26 3 31 -8 24 -8 -5 -7 0 4 12 9 11 17 25 17 32 0 7 5 9 11 6 7
-5 6 -12 -4 -23 -18 -22 -11 -56 10 -48 14 6 14 4 2 -11 -12 -14 -12 -16 0 -8
11 6 13 4 7 -10 -6 -18 -6 -18 12 -2 10 9 26 17 36 17 11 0 15 5 10 13 -4 6
-4 9 1 5 4 -4 13 -3 20 2 8 7 12 5 12 -5 0 -8 -5 -11 -10 -8 -6 3 -7 1 -3 -6
13 -20 35 7 31 37 -2 15 -2 21 1 14 3 -6 11 -9 16 -6 7 5 8 2 2 -7 -12 -20
-14 -39 -3 -39 5 0 9 5 9 12 0 8 5 6 13 -3 19 -23 53 -47 43 -31 -10 16 25 13
36 -3 4 -5 6 0 5 12 -1 18 -4 20 -17 10 -13 -10 -13 -10 -3 4 7 9 9 20 5 25
-4 4 0 3 9 -4 9 -6 20 -8 24 -4 5 4 4 1 0 -7 -6 -11 -4 -13 9 -8 10 4 15 3 11
-3 -3 -6 1 -10 10 -10 8 0 20 10 25 23 8 20 9 20 10 2 0 -16 2 -17 9 -5 6 8 8
17 5 21 -2 4 1 11 7 15 8 4 9 3 5 -4 -4 -7 -3 -12 3 -12 5 0 16 -7 24 -15 13
-13 16 -13 21 0 3 8 0 14 -6 12 -6 -1 -13 5 -15 13 -3 10 -2 11 4 4 8 -11 13
-11 60 0 13 3 25 0 29 -5 3 -6 12 -5 22 3 13 12 14 10 4 -9 -17 -32 -15 -39 6
-17 14 17 34 23 45 14 1 -1 10 -3 20 -5 13 -2 17 1 13 10 -3 8 -1 17 4 20 4 3
7 -6 6 -19 -2 -14 1 -30 6 -38 7 -10 8 -8 4 5 -3 9 -1 17 5 17 6 0 8 4 5 8 -3
5 13 8 35 8 22 0 38 -5 36 -11 -2 -5 -9 -10 -14 -10 -6 0 -15 -3 -19 -7 -3 -4
4 -5 16 -3 13 3 27 10 31 16 9 16 22 -7 13 -23 -4 -7 4 -4 17 7 13 12 33 27
43 35 18 14 19 14 6 -10 -13 -25 -13 -25 7 -7 17 15 22 15 32 3 9 -11 8 -15
-3 -19 -11 -4 -13 -1 -9 11 4 13 3 14 -6 6 -6 -6 -9 -19 -5 -28 4 -10 10 -14
13 -9 3 4 17 14 30 21 21 12 23 12 18 -3 -4 -9 -3 -14 3 -10 6 3 10 14 11 23
0 11 2 12 6 4 2 -6 10 -9 16 -5 7 4 5 -2 -3 -12 -14 -17 -13 -18 5 -8 11 5 29
9 40 9 11 -1 23 4 27 9 5 6 8 5 8 -3 0 -10 3 -10 15 2 9 8 26 13 41 10 18 -3
23 -1 18 7 -5 8 -3 9 5 4 7 -4 11 -18 8 -31 -2 -13 0 -21 4 -18 5 3 9 13 9 22
0 15 2 15 10 2 5 -8 10 -10 10 -4 0 6 7 11 15 11 14 0 18 -8 13 -24 -2 -5 -11
-7 -20 -7 -13 1 -14 -2 -5 -17 10 -16 12 -16 22 -2 8 11 14 12 19 5 4 -6 14
-8 23 -5 12 5 14 3 8 -8 -4 -8 -4 -11 0 -6 13 11 16 45 5 52 -5 3 -7 0 -5 -7
4 -9 -2 -14 -15 -14 -18 0 -18 2 -5 15 15 15 78 24 69 10 -2 -4 3 -9 11 -12 9
-4 12 -1 9 7 -3 7 2 13 10 13 8 0 13 -4 10 -9 -3 -4 2 -8 10 -8 9 0 16 6 16
13 0 8 3 7 9 -3 6 -8 7 -18 4 -24 -3 -5 -1 -6 5 -2 7 4 12 13 12 20 0 7 7 13
15 13 8 0 12 -4 10 -8 -3 -3 1 -12 9 -18 16 -13 49 -4 39 12 -3 6 -1 7 5 3 6
-3 9 -15 7 -26 -2 -11 -1 -22 3 -24 4 -3 9 7 10 21 3 34 10 43 27 37 8 -4 12
-11 9 -16 -4 -6 -9 -5 -14 2 -5 8 -7 3 -7 -14 2 -22 4 -24 13 -11 6 8 15 11
19 7 5 -4 6 -2 2 3 -3 6 -2 17 4 25 7 13 9 12 9 -2 0 -10 5 -18 11 -18 5 0 7
-5 3 -12 -4 -6 -3 -8 4 -5 5 4 8 17 5 30 -4 19 -3 20 7 5 6 -10 17 -15 27 -11
11 4 14 3 9 -5 -10 -17 4 -15 23 2 11 10 22 12 31 6 12 -7 12 -11 -1 -27 -13
-17 -13 -17 13 0 20 12 26 13 22 3 -3 -7 2 -16 11 -20 9 -3 13 -11 9 -17 -4
-7 -3 -9 4 -6 11 7 10 20 -3 50 -4 10 -5 21 -1 24 3 4 6 -1 6 -11 0 -10 5 -14
12 -10 7 4 8 3 4 -4 -4 -7 -2 -12 3 -12 10 0 15 12 13 30 0 3 8 6 18 6 10 0
16 -5 13 -10 -4 -5 1 -7 11 -3 9 4 15 3 12 -1 -3 -5 4 -16 15 -25 20 -18 26
-10 9 11 -6 6 -7 10 -4 7 4 -3 13 0 21 6 10 9 17 8 28 -1 13 -11 18 -10 31 6
9 10 12 13 8 5 -5 -10 -3 -13 8 -8 9 3 24 -1 35 -8 16 -13 16 -14 1 -15 -9 0
-19 6 -21 13 -4 9 -6 9 -6 -1 -1 -7 -5 -11 -9 -8 -5 3 -9 -1 -9 -9 0 -11 4
-12 14 -4 7 6 13 7 13 2 0 -5 9 -9 19 -9 13 0 18 6 15 19 -2 14 1 17 13 13 11
-4 14 -2 10 9 -4 8 -3 17 2 19 4 3 8 0 8 -7 0 -7 4 -21 9 -31 5 -15 4 -17 -6
-11 -9 5 -11 4 -6 -4 10 -15 22 -7 29 19 3 13 1 18 -5 13 -7 -3 -8 -1 -4 5 10
16 46 -7 46 -30 0 -9 4 -19 8 -22 11 -7 13 36 2 49 -7 8 -5 12 5 12 8 0 12 -4
10 -7 -3 -4 7 -7 21 -7 17 -1 29 7 34 21 9 21 9 21 9 1 1 -12 -5 -27 -11 -34
-11 -11 -9 -11 10 -1 15 7 21 17 18 26 -3 8 -2 13 3 9 5 -3 12 1 15 7 3 7 3 3
1 -9 -3 -12 0 -25 6 -29 8 -4 9 -3 5 4 -4 7 -3 12 3 12 5 0 8 10 6 22 -4 20
-3 21 12 5 14 -14 14 -18 2 -34 -11 -14 -9 -14 10 2 13 11 25 19 27 18 13 -9
14 -1 3 14 -10 11 -10 14 -1 9 7 -4 12 -2 12 5 0 10 3 10 12 1 9 -9 9 -15 0
-24 -16 -16 -15 -33 1 -19 8 6 17 8 20 4 11 -11 36 18 30 35 -5 15 -4 15 8 0
8 -10 23 -16 34 -14 11 2 28 -1 38 -6 13 -6 17 -5 17 8 0 11 -5 14 -17 10 -15
-5 -15 -4 1 9 17 13 22 13 37 -1 16 -14 18 -14 27 3 5 10 7 25 5 33 -3 9 0 8
7 -3 10 -15 14 -16 28 -5 15 12 16 11 3 -4 -7 -10 -17 -15 -22 -12 -5 3 -9 0
-9 -6 0 -7 -10 -21 -22 -32 -19 -16 -20 -19 -5 -14 10 3 23 6 28 6 5 0 9 6 9
14 0 8 7 17 16 20 8 3 13 2 9 -3 -3 -5 16 -9 42 -9 27 1 47 -3 46 -8 -1 -5 9
-10 22 -10 18 -1 22 2 18 15 -3 12 0 11 12 -4 17 -19 17 -19 11 18 -7 37 -7
38 12 20 10 -10 17 -22 14 -28 -3 -5 3 -2 14 7 10 9 22 16 26 15 3 -1 10 2 15
6 4 5 3 7 -2 5 -10 -3 -15 4 -15 23 0 5 11 -3 25 -18 15 -17 23 -21 19 -10 -5
13 -2 16 10 11 9 -3 14 -9 11 -13 -2 -4 2 -8 10 -8 7 0 12 8 10 19 -2 10 0 16
5 13 4 -3 10 -2 13 2 2 5 2 3 1 -4 -2 -6 5 -17 14 -25 15 -12 16 -11 4 4 -8
10 -9 19 -3 22 5 3 11 1 13 -6 2 -6 12 -12 21 -14 9 -1 15 2 11 7 -3 5 -11 6
-17 3 -9 -5 -9 -3 0 6 10 11 15 11 29 -1 12 -9 15 -10 10 -1 -4 6 -2 12 3 12
6 0 11 -5 11 -11 0 -5 5 -7 12 -3 8 5 9 2 5 -10 -4 -10 -3 -15 3 -11 6 3 10
13 10 21 0 10 5 12 13 7 21 -13 34 -11 34 6 0 34 3 42 14 36 6 -4 8 -12 6 -19
-3 -7 10 -11 37 -10 22 0 47 -4 55 -10 12 -9 13 -8 6 3 -6 11 -4 13 11 7 10
-4 15 -4 11 0 -9 9 12 34 29 34 20 0 17 -18 -3 -22 -15 -3 -14 -5 5 -10 12 -3
20 -2 16 3 -3 5 2 9 11 9 9 0 14 -4 11 -8 -3 -5 1 -9 7 -9 7 0 14 10 15 21 1
17 -1 18 -8 6 -5 -8 -10 -10 -10 -5 0 6 4 16 9 23 6 11 10 10 15 -3 5 -15 9
-15 23 -4 15 12 16 12 10 -3 -3 -9 1 -22 9 -28 8 -7 14 -11 15 -9 8 43 8 53
-1 39 -5 -8 -10 -10 -10 -5 0 6 5 17 10 25 9 13 10 13 10 0 1 -11 4 -10 15 4
10 13 15 15 15 6 0 -7 3 -10 7 -7 3 4 12 2 20 -4 10 -9 13 -8 13 4 0 9 4 18 9
22 10 5 0 -40 -14 -67 -4 -7 0 -5 8 5 15 18 33 24 22 8 -3 -5 -2 -12 3 -15 4
-2 9 10 10 27 2 24 0 28 -8 17 -6 -9 -10 -10 -10 -3 0 6 5 15 10 18 6 4 7 12
3 18 -3 7 2 4 13 -5 19 -17 21 -17 39 0 19 17 19 16 2 -4 -20 -24 -22 -38 -5
-28 9 5 8 2 -1 -9 -8 -10 -11 -20 -7 -24 3 -3 6 -1 6 5 0 7 5 12 11 12 6 0 8
-8 5 -17 -5 -15 -4 -15 9 1 8 11 15 27 14 35 0 12 -3 11 -10 -4 l-9 -20 3 20
c1 11 8 21 15 21 6 1 13 2 15 3 9 8 47 9 47 2 0 -6 -9 -8 -20 -6 -16 3 -18 1
-11 -13 4 -9 7 -23 5 -30 -1 -7 0 -8 3 -2 2 5 10 7 16 4 8 -5 8 -2 -1 7 -16
18 -16 34 1 20 8 -6 18 -7 22 -3 5 4 5 -2 2 -13 -6 -17 -5 -18 5 -5 15 18 26
19 48 5 12 -7 13 -6 3 6 -10 13 -10 19 2 35 13 18 14 18 8 -3 -6 -27 9 -30 28
-5 13 16 13 16 -6 2 -18 -14 -19 -13 -8 1 7 9 9 20 5 25 -4 4 1 2 11 -5 10 -8
16 -20 13 -28 -4 -8 -1 -11 5 -8 6 4 8 13 5 21 -7 17 10 19 18 2 4 -7 5 -4 2
8 -2 12 2 21 9 21 7 0 10 -8 8 -18 -3 -9 0 -19 5 -23 5 -3 9 2 8 12 -1 11 6
17 19 17 11 0 23 4 27 10 4 5 6 0 5 -12 -1 -17 -4 -19 -14 -11 -10 8 -13 7
-13 -5 0 -15 23 -18 36 -4 4 4 13 2 20 -4 10 -8 11 -5 7 13 -4 18 -3 20 6 8 6
-8 16 -15 23 -15 7 -1 12 -6 11 -13 -2 -8 4 -9 23 -2 18 7 24 7 23 -3 -4 -33
1 -41 15 -22 8 11 11 24 8 30 -8 13 -12 38 -5 31 4 -3 13 0 22 6 12 10 12 8
-1 -8 -17 -19 -17 -21 3 -37 16 -14 18 -21 8 -38 -6 -13 -7 -19 -1 -15 6 3 13
0 16 -6 3 -7 3 -2 0 12 -5 25 -5 24 21 -5 18 -21 24 -24 19 -10 -6 17 -3 16
22 -6 16 -15 35 -24 43 -21 9 3 11 0 6 -9 -5 -8 -4 -11 1 -6 14 13 11 31 -6
44 -13 10 -12 12 8 8 l22 -4 0 900 0 899 -5001 0 -5000 0 2 -410z m22 -345
c-3 -9 -8 -14 -10 -11 -3 3 -2 9 2 15 9 16 15 13 8 -4z m57 -5 c6 -11 8 -20 6
-20 -3 0 -10 9 -16 20 -6 11 -8 20 -6 20 3 0 10 -9 16 -20z m-33 -6 c-9 -9 11
-44 25 -44 6 0 5 7 -3 18 -12 15 -12 16 2 5 9 -7 20 -9 24 -5 5 4 4 0 -1 -8
-5 -8 -9 -18 -9 -22 0 -16 -15 -19 -21 -5 -3 9 -12 13 -19 11 -7 -3 -19 5 -26
18 -12 22 -11 22 6 8 17 -14 18 -13 13 2 -6 15 -1 28 10 28 3 0 2 -3 -1 -6z
m133 -99 c-7 -8 -10 -22 -6 -30 3 -8 1 -15 -4 -15 -6 0 -10 6 -10 14 0 23 11
46 22 46 6 0 5 -6 -2 -15z m43 -107 c-18 -20 -26 -19 -18 4 3 8 12 15 20 15
13 0 12 -4 -2 -19z m64 -50 c4 -28 -6 -18 -12 12 -2 12 -1 20 2 16 4 -4 8 -16
10 -28z m-17 -28 c0 -5 -2 -10 -4 -10 -3 0 -8 5 -11 10 -3 6 -1 10 4 10 6 0
11 -4 11 -10z m250 -6 c0 -8 -19 -13 -24 -6 -3 5 1 9 9 9 8 0 15 -2 15 -3z m0
-46 c10 -3 11 -6 3 -11 -7 -4 -21 7 -33 25 -16 24 -16 27 -3 12 10 -11 25 -23
33 -26z m-82 7 c-3 -3 -9 2 -12 12 -6 14 -5 15 5 6 7 -7 10 -15 7 -18z m588
-27 c4 -7 3 -8 -4 -4 -7 4 -12 2 -12 -5 0 -7 -3 -10 -6 -6 -6 5 3 27 11 27 2
0 7 -5 11 -12z m119 -8 c-3 -5 -12 -10 -18 -10 -7 0 -6 4 3 10 19 12 23 12 15
0z m187 -14 c7 4 8 2 4 -5 -6 -9 -11 -9 -22 0 -11 9 -14 9 -14 -1 0 -8 -2 -11
-5 -8 -3 3 -2 13 1 23 6 16 8 16 16 1 5 -9 14 -13 20 -10z m265 -44 c1 -12 -2
-22 -8 -22 -7 0 -9 9 -6 21 4 15 2 19 -9 15 -9 -3 -12 -2 -9 5 10 16 28 5 32
-19z m360 -74 c-3 -7 -5 -2 -5 12 0 14 2 19 5 13 2 -7 2 -19 0 -25z m26 7 c-7
-21 -12 -19 -10 4 0 11 5 18 9 15 4 -3 5 -11 1 -19z m149 1 c6 4 8 2 4 -4 -3
-5 0 -12 6 -15 7 -2 0 -4 -17 -4 -16 0 -25 2 -18 4 7 2 11 10 9 16 -1 7 -1 9
1 4 3 -4 10 -4 15 -1z m195 -21 c0 -8 -3 -13 -5 -10 -3 3 -12 -1 -21 -7 -10
-8 -9 -4 3 10 23 26 23 26 23 7z m250 -50 c-9 -9 -14 -10 -19 -1 -5 7 -8 5 -8
-6 0 -10 -4 -18 -9 -18 -6 0 -9 9 -8 19 0 11 4 18 8 15 4 -2 10 0 14 5 3 6 12
8 20 5 11 -5 12 -9 2 -19z m69 -26 c1 -22 -1 -25 -11 -16 -15 15 -15 44 -1 44
6 0 12 -13 12 -28z m189 2 c3 -5 2 -12 -3 -15 -5 -3 -9 1 -9 9 0 17 3 19 12 6z
m58 -26 c-3 -9 -8 -14 -10 -11 -3 3 -2 9 2 15 9 16 15 13 8 -4z m354 -37 c2
-17 0 -19 -7 -8 -5 8 -6 18 -4 22 8 12 10 10 11 -14z m-56 3 c5 8 9 9 9 3 0
-5 -6 -19 -14 -29 -13 -17 -13 -17 -13 11 0 16 2 23 5 15 4 -11 6 -11 13 0z
m446 -93 c-3 -8 -6 -5 -6 6 -1 11 2 17 5 13 3 -3 4 -12 1 -19z m687 -47 c3 -5
-2 -15 -12 -22 -15 -12 -16 -12 -5 2 7 9 10 19 6 22 -3 4 -4 7 0 7 3 0 8 -4
11 -9z m506 -1 c0 13 2 13 9 0 6 -8 7 -18 4 -23 -6 -10 -33 11 -33 27 0 6 5 4
10 -4 9 -13 10 -13 10 0z m97 -37 c0 -9 -4 -10 -14 -2 -7 6 -13 12 -13 14 0 1
6 2 13 2 8 0 14 -6 14 -14z m149 -19 c1 -9 0 -13 -4 -10 -3 4 -7 14 -8 22 -1
9 0 13 4 10 3 -4 7 -14 8 -22z m29 -3 c3 -5 2 -12 -3 -15 -5 -3 -9 1 -9 9 0
17 3 19 12 6z m4490 -21 c-3 -5 -12 -10 -18 -10 -7 0 -6 4 3 10 19 12 23 12
15 0z m206 -34 c-6 -7 -7 -16 -3 -20 4 -4 0 -6 -8 -4 -10 2 -14 -4 -12 -20 1
-15 -2 -22 -10 -19 -7 2 -13 12 -12 23 1 15 -5 19 -23 18 -14 0 -29 -7 -34
-15 -5 -9 -9 -10 -9 -2 0 14 19 28 40 28 8 0 21 4 29 9 10 7 12 6 6 -4 -5 -8
-3 -11 6 -8 8 3 15 10 15 16 3 22 4 23 14 17 8 -5 8 -11 1 -19z m-4654 -1 c0
-8 -4 -12 -9 -9 -5 3 -6 10 -3 15 9 13 12 11 12 -6z m30 -30 c0 -8 -4 -12 -9
-9 -5 3 -6 10 -3 15 9 13 12 11 12 -6z m-697 -8 c0 -7 -7 -22 -16 -33 -8 -10
-13 -13 -9 -6 3 6 0 12 -7 13 -10 0 -10 2 0 6 6 2 12 11 12 19 0 8 5 14 10 14
6 0 10 -6 10 -13z m5270 -1 c0 -3 -4 -8 -10 -11 -5 -3 -10 -1 -10 4 0 6 5 11
10 11 6 0 10 -2 10 -4z m-4655 -15 c-3 -2 0 -9 5 -16 16 -19 -18 -14 -35 5
-13 14 -12 16 10 16 13 0 22 -2 20 -5z m4400 -3 c4 4 6 0 3 -8 -2 -8 -16 -15
-31 -15 -23 -2 -25 1 -16 17 8 14 14 16 23 9 7 -6 16 -7 21 -3z m-5208 -30
c-3 -8 -6 -5 -6 6 -1 11 2 17 5 13 3 -3 4 -12 1 -19z m5598 2 c-2 -11 4 -16
23 -16 14 1 27 -5 29 -11 3 -7 -2 -13 -11 -13 -9 0 -16 6 -16 13 0 9 -2 9 -9
-1 -6 -10 -11 -10 -21 4 -19 22 -21 41 -5 41 7 0 12 -8 10 -17z m-913 -15 c9
2 22 -3 28 -10 8 -9 5 -14 -9 -18 -11 -3 -19 -1 -18 3 1 4 -2 8 -8 8 -5 0 -9
-5 -7 -11 2 -6 -3 -5 -12 2 -8 7 -12 19 -9 28 3 8 9 10 12 5 3 -5 14 -8 23 -7z
m-267 -14 c3 -5 2 -12 -3 -15 -5 -3 -9 1 -9 9 0 17 3 19 12 6z m170 -20 c3 -5
2 -12 -3 -15 -5 -3 -9 1 -9 9 0 17 3 19 12 6z m-283 -28 c-3 -16 -7 -22 -10
-15 -4 13 4 42 11 42 2 0 2 -12 -1 -27z m1359 10 c13 -16 12 -17 -3 -4 -10 7
-18 15 -18 17 0 8 8 3 21 -13z m-1620 -20 c13 -16 12 -17 -3 -4 -10 7 -18 15
-18 17 0 8 8 3 21 -13z m132 2 c-3 -9 -8 -14 -10 -11 -3 3 -2 9 2 15 9 16 15
13 8 -4z m35 -10 c-3 -3 -9 2 -12 12 -6 14 -5 15 5 6 7 -7 10 -15 7 -18z
m-3007 -2 c13 -16 12 -17 -3 -4 -10 7 -18 15 -18 17 0 8 8 3 21 -13z m289 11
c0 -8 -19 -13 -24 -6 -3 5 1 9 9 9 8 0 15 -2 15 -3z m2477 -16 c2 -17 0 -19
-7 -8 -5 8 -6 18 -4 22 8 12 10 10 11 -14z m273 12 c0 -5 -2 -10 -4 -10 -3 0
-8 5 -11 10 -3 6 -1 10 4 10 6 0 11 -4 11 -10z m-345 -9 c3 -5 2 -12 -3 -15
-5 -3 -9 1 -9 9 0 17 3 19 12 6z m-2351 -10 c-3 -4 -10 -7 -15 -7 -5 -1 -10
-2 -11 -4 -2 -1 -11 -3 -20 -5 -20 -4 -25 11 -6 17 17 6 58 5 52 -1z m836 -6
c0 -8 -4 -15 -10 -15 -5 0 -7 7 -4 15 4 8 8 15 10 15 2 0 4 -7 4 -15z m1298
-10 c-3 -3 -9 2 -12 12 -6 14 -5 15 5 6 7 -7 10 -15 7 -18z m-2111 -4 c0 -11
-5 -18 -9 -15 -4 3 -5 11 -1 19 7 21 12 19 10 -4z m133 3 c0 -8 -19 -13 -24
-6 -3 5 1 9 9 9 8 0 15 -2 15 -3z m-105 -14 c3 -5 1 -10 -4 -10 -6 0 -11 5
-11 10 0 6 2 10 4 10 3 0 8 -4 11 -10z m250 1 c3 -5 2 -12 -3 -15 -5 -3 -9 1
-9 9 0 17 3 19 12 6z m1705 -7 c0 -8 -19 -13 -24 -6 -3 5 1 9 9 9 8 0 15 -2
15 -3z"/>
<path d="M23 6643 c0 -9 4 -10 14 -2 7 6 13 12 13 14 0 1 -6 2 -13 2 -8 0 -14
-6 -14 -14z"/>
<path d="M556 6379 c4 -8 30 -6 38 2 3 3 -5 5 -19 5 -13 0 -22 -3 -19 -7z"/>
<path d="M1090 6350 c0 -5 5 -10 11 -10 5 0 7 5 4 10 -3 6 -8 10 -11 10 -2 0
-4 -4 -4 -10z"/>
<path d="M1063 6325 c-10 -22 -9 -25 7 -25 11 0 22 5 26 12 4 6 3 8 -4 4 -6
-3 -12 2 -14 14 -3 18 -4 18 -15 -5z"/>
<path d="M995 6310 c-3 -5 -1 -10 4 -10 6 0 11 5 11 10 0 6 -2 10 -4 10 -3 0
-8 -4 -11 -10z"/>
<path d="M1445 6281 c-3 -5 -2 -12 3 -15 5 -3 9 1 9 9 0 17 -3 19 -12 6z"/>
<path d="M1825 6281 c-3 -6 -11 -9 -16 -5 -6 3 -10 0 -8 -7 3 -26 -1 -40 -10
-34 -5 3 -12 1 -15 -3 -3 -5 10 -8 29 -7 20 2 38 -1 41 -6 3 -5 11 -9 17 -9 8
0 8 3 -2 9 -8 5 -11 16 -6 30 3 12 11 19 16 16 5 -4 9 -1 9 5 0 7 -6 10 -14 7
-7 -3 -18 -1 -24 5 -6 6 -12 6 -17 -1z m10 -30 c3 -5 2 -12 -3 -15 -5 -3 -9 1
-9 9 0 17 3 19 12 6z"/>
<path d="M1516 6248 c3 -5 10 -6 15 -3 13 9 11 12 -6 12 -8 0 -12 -4 -9 -9z"/>
<path d="M1586 6245 c4 -8 7 -15 9 -15 2 0 5 7 9 15 3 9 0 15 -9 15 -9 0 -12
-6 -9 -15z"/>
<path d="M2215 6200 c-3 -5 -1 -10 4 -10 6 0 11 5 11 10 0 6 -2 10 -4 10 -3 0
-8 -4 -11 -10z"/>
<path d="M2105 6190 c-3 -6 1 -7 9 -4 18 7 21 14 7 14 -6 0 -13 -4 -16 -10z"/>
<path d="M2355 6150 c-3 -5 -1 -10 4 -10 6 0 11 5 11 10 0 6 -2 10 -4 10 -3 0
-8 -4 -11 -10z"/>
<path d="M2459 6137 c7 -7 14 -8 21 -1 6 6 2 10 -12 11 -16 2 -18 -1 -9 -10z"/>
<path d="M2746 6112 c-3 -5 1 -15 8 -21 11 -10 14 -9 12 3 -3 21 -13 29 -20
18z"/>
<path d="M3116 6062 c-3 -6 1 -15 8 -21 8 -7 17 -8 20 -3 3 6 -1 15 -8 21 -8
7 -17 8 -20 3z"/>
<path d="M3263 6053 c4 -3 1 -13 -6 -21 -11 -13 -9 -14 10 -2 22 14 22 30 1
30 -6 0 -8 -3 -5 -7z"/>
<path d="M3407 6036 c-3 -8 2 -20 11 -28 15 -11 16 -11 4 4 -10 13 -10 17 0
20 8 3 9 6 1 11 -6 4 -13 0 -16 -7z"/>
<path d="M3970 5924 c0 -8 5 -12 10 -9 6 3 10 10 10 16 0 5 -4 9 -10 9 -5 0
-10 -7 -10 -16z"/>
<path d="M4654 5911 c3 -5 -1 -11 -8 -14 -8 -3 -17 -1 -19 6 -3 7 -5 -3 -4
-20 0 -33 13 -41 35 -23 9 7 9 7 2 -2 -5 -7 -10 -15 -10 -19 0 -8 34 -4 50 6
6 3 10 1 10 -6 0 -29 20 9 24 46 l5 40 -11 -32 c-6 -19 -18 -33 -27 -33 -14 0
-14 2 -2 9 12 8 11 13 -10 30 -25 21 -44 28 -35 12z"/>
<path d="M4336 5885 c-5 -14 -9 -15 -21 -5 -11 9 -15 9 -15 1 0 -7 -4 -9 -10
-6 -5 3 -10 1 -10 -4 0 -6 -5 -11 -11 -11 -5 0 -7 5 -3 12 4 7 3 8 -4 4 -12
-7 -17 -36 -6 -36 3 0 14 5 25 10 15 9 19 7 19 -7 1 -17 1 -17 11 0 5 9 19 17
29 17 22 0 24 7 11 28 -6 11 -10 10 -15 -3z"/>
<path d="M4365 5880 c3 -5 8 -10 11 -10 2 0 4 5 4 10 0 6 -5 10 -11 10 -5 0
-7 -4 -4 -10z"/>
<path d="M4225 5850 c-3 -5 -1 -10 4 -10 6 0 11 5 11 10 0 6 -2 10 -4 10 -3 0
-8 -4 -11 -10z"/>
<path d="M4922 5831 c-6 -17 -9 -31 -6 -31 7 0 25 52 20 57 -2 2 -8 -10 -14
-26z"/>
<path d="M3661 5801 c-9 -15 -7 -20 9 -24 15 -4 20 0 20 13 0 27 -17 34 -29
11z"/>
<path d="M4574 5809 c-9 -15 18 -21 32 -7 12 12 11 14 -7 14 -11 0 -22 -4 -25
-7z"/>
<path d="M4638 5813 c7 -3 16 -2 19 1 4 3 -2 6 -13 5 -11 0 -14 -3 -6 -6z"/>
<path d="M4961 5759 c12 -17 27 -33 34 -35 7 -3 15 -14 18 -25 3 -10 13 -19
22 -19 9 0 23 -7 32 -15 20 -20 28 -12 14 14 -7 13 -18 18 -32 16 -19 -4 -21
0 -17 31 3 27 1 33 -10 29 -8 -3 -26 4 -42 15 -39 28 -45 25 -19 -11z"/>
<path d="M4710 5762 c0 -4 10 -13 21 -21 21 -13 20 -14 -21 -32 -51 -23 -78
-25 -32 -2 37 18 37 27 -1 18 -31 -8 -41 -29 -22 -45 12 -10 46 0 65 20 6 6
58 30 66 30 3 0 2 -5 -2 -12 -5 -8 -2 -9 11 -4 11 4 22 1 27 -6 6 -9 8 -7 6 7
-2 11 -10 20 -18 21 -8 0 -23 4 -32 8 -9 4 -23 4 -29 0 -9 -5 -10 -2 -6 9 5
12 1 17 -13 17 -11 0 -20 -3 -20 -8z"/>
<path d="M9306 5757 c3 -10 9 -15 12 -12 3 3 0 11 -7 18 -10 9 -11 8 -5 -6z"/>
<path d="M4880 5756 c0 -2 7 -7 16 -10 8 -3 12 -2 9 4 -6 10 -25 14 -25 6z"/>
<path d="M3639 5729 c-32 -32 -21 -41 21 -17 22 13 40 25 40 28 0 14 -43 7
-61 -11z"/>
<path d="M4515 5740 c3 -5 8 -10 11 -10 2 0 4 5 4 10 0 6 -5 10 -11 10 -5 0
-7 -4 -4 -10z"/>
<path d="M9206 5741 c-7 -16 1 -34 17 -37 15 -2 16 0 5 14 -11 13 -11 15 4 9
11 -4 15 -2 12 7 -5 13 -32 18 -38 7z"/>
<path d="M9825 5741 c-3 -5 -2 -12 3 -15 5 -3 9 1 9 9 0 17 -3 19 -12 6z"/>
<path d="M4929 5738 c-7 -24 -4 -40 8 -50 14 -11 15 -10 8 11 -5 17 -4 22 6
18 8 -2 13 -9 12 -15 -1 -5 6 -12 17 -15 12 -3 17 0 13 9 -7 18 -60 53 -64 42z"/>
<path d="M9386 5725 c-9 -26 -7 -32 5 -12 6 10 9 21 6 23 -2 3 -7 -2 -11 -11z"/>
<path d="M5046 5715 c4 -8 10 -12 15 -9 11 6 2 24 -11 24 -5 0 -7 -7 -4 -15z"/>
<path d="M4536 5705 c-10 -8 -23 -12 -27 -9 -5 3 -6 -2 -3 -9 8 -21 31 -15 50
11 17 25 8 28 -20 7z"/>
<path d="M4448 5703 c-10 -2 -18 -9 -18 -14 0 -13 13 -11 36 6 19 14 14 17
-18 8z"/>
<path d="M5106 5701 c-4 -5 -2 -12 3 -15 5 -4 12 -2 15 3 4 5 2 12 -3 15 -5 4
-12 2 -15 -3z"/>
<path d="M4283 5693 c-15 -5 -17 -23 -4 -23 5 0 11 7 15 15 3 8 4 15 3 14 -1
0 -8 -3 -14 -6z"/>
<path d="M4879 5690 c-20 -13 -5 -22 21 -12 18 7 20 10 8 14 -8 4 -21 2 -29
-2z"/>
<path d="M5187 5681 c-8 -9 -8 -12 -1 -8 7 4 14 0 18 -8 8 -23 21 -18 21 8 0
27 -19 31 -38 8z"/>
<path d="M3745 5669 c6 -9 3 -11 -9 -6 -10 4 -15 3 -11 -3 3 -6 14 -10 23 -10
12 0 18 -9 20 -26 2 -21 -1 -25 -16 -20 -13 5 -11 1 6 -16 23 -23 23 -23 38
-3 15 19 15 19 9 -7 -4 -16 -4 -28 0 -28 14 0 44 45 44 65 0 11 -3 14 -6 8 -2
-7 -9 -13 -14 -13 -4 0 -6 7 -2 16 4 12 0 14 -23 9 -16 -3 -23 -2 -16 1 13 6
17 25 5 22 -5 -1 -19 4 -32 11 -18 10 -22 10 -16 0z"/>
<path d="M4398 5659 c-10 -5 -25 -25 -34 -44 -9 -19 -21 -32 -26 -29 -6 4 -8
-2 -3 -15 10 -32 -4 -45 -26 -25 -10 9 -19 14 -19 11 0 -9 42 -47 52 -47 4 0
17 23 29 50 18 43 25 50 43 45 15 -5 17 -4 7 3 -10 7 -11 14 -2 28 6 11 11 14
11 8 0 -8 13 -9 40 -4 53 10 62 19 16 16 -20 -2 -39 1 -42 5 -7 12 -25 11 -46
-2z"/>
<path d="M5296 5645 c4 -8 8 -15 10 -15 2 0 4 7 4 15 0 8 -4 15 -10 15 -5 0
-7 -7 -4 -15z"/>
<path d="M3047 5642 c-30 -6 -15 -34 21 -38 30 -4 32 -2 22 15 -13 25 -20 29
-43 23z"/>
<path d="M3114 5637 c-12 -14 -7 -38 10 -49 23 -15 -4 -18 -37 -4 -19 8 -38
12 -41 9 -3 -3 -12 0 -21 7 -13 11 -21 7 -50 -23 -41 -42 -47 -93 -15 -122 11
-10 17 -21 15 -25 -3 -5 17 -14 45 -21 50 -13 60 -22 39 -34 -6 -5 -4 -12 8
-20 17 -13 17 -14 0 -32 -19 -21 -23 -43 -8 -43 6 0 13 5 16 10 3 6 12 10 18
10 7 0 1 -9 -13 -20 -30 -23 -14 -27 18 -4 12 8 30 14 40 12 12 -2 5 -9 -22
-22 -30 -14 -44 -16 -56 -8 -14 8 -25 5 -54 -16 -21 -15 -32 -28 -26 -32 12
-8 -3 -23 -34 -34 -16 -5 -16 -9 -5 -23 10 -12 10 -15 1 -9 -18 11 -25 -17
-14 -58 7 -25 7 -36 -1 -39 -8 -2 -6 -12 6 -30 14 -22 14 -25 2 -21 -11 5 -13
2 -8 -12 6 -15 3 -15 -17 4 -24 23 -47 24 -42 3 3 -17 -37 6 -45 25 -6 15 -33
20 -33 5 0 -5 -3 -17 -7 -27 -5 -12 -3 -15 6 -9 8 4 17 2 22 -6 13 -21 11 -29
-8 -30 -14 0 -14 -2 3 -9 12 -5 25 -14 29 -20 4 -7 -7 -4 -24 4 -17 9 -31 24
-32 34 0 14 -2 14 -8 -3 -9 -23 -3 -47 10 -39 5 2 18 0 29 -6 15 -8 18 -17 13
-40 -4 -23 -2 -30 11 -30 9 0 16 5 16 11 0 5 -5 7 -11 3 -7 -4 -10 -1 -7 7 8
23 31 16 39 -12 6 -26 6 -26 -37 -21 -39 4 -44 2 -49 -21 -5 -18 -15 -26 -35
-29 -16 -2 -27 -1 -24 4 3 4 14 8 25 8 10 0 19 5 19 10 0 15 -26 12 -39 -4 -7
-8 -22 -12 -34 -10 l-22 5 23 -10 c12 -6 22 -15 22 -21 0 -5 3 -9 8 -8 4 1 26
-7 49 -16 44 -19 49 -41 7 -33 -36 6 -39 -10 -4 -18 32 -7 42 -35 13 -35 -10
-1 -29 -7 -42 -14 -33 -18 -57 -10 -39 12 10 12 7 11 -14 -2 -29 -19 -39 -50
-14 -40 8 3 17 1 20 -4 3 -6 -1 -12 -9 -15 -15 -6 -62 -74 -82 -121 -16 -35
-17 -73 -1 -82 7 -5 8 -3 3 5 -7 13 25 51 44 51 6 0 9 -13 8 -30 -1 -16 -5
-30 -9 -30 -5 0 -8 4 -8 9 0 5 -7 11 -14 14 -16 6 -12 -16 7 -40 5 -7 6 -13 2
-13 -4 0 7 -19 24 -42 17 -23 31 -50 31 -60 0 -12 7 -18 21 -18 22 0 41 -16
76 -63 21 -28 21 -35 6 -74 -3 -10 -7 -24 -9 -32 -1 -7 -8 -19 -14 -25 -9 -8
-11 -5 -5 13 5 16 4 21 -4 17 -6 -4 -11 -14 -11 -22 0 -20 -27 -47 -40 -39 -5
3 -10 1 -10 -4 0 -6 5 -11 11 -11 5 0 7 -4 4 -10 -3 -5 0 -10 7 -11 7 0 -24
-11 -69 -24 -71 -21 -88 -31 -125 -71 -44 -47 -54 -66 -62 -110 -3 -14 -15
-34 -28 -45 l-23 -20 30 5 c17 3 24 3 18 0 -9 -4 -10 -11 -2 -25 15 -30 1 -41
-49 -38 -26 2 -47 -1 -49 -8 -5 -15 24 -25 81 -28 26 -2 53 -8 60 -15 6 -6 7
-11 1 -10 -24 5 -65 -1 -65 -9 0 -5 30 -12 68 -16 37 -4 80 -14 97 -23 16 -8
48 -16 70 -17 25 -1 39 -6 37 -14 -2 -9 3 -9 17 -2 15 9 20 7 24 -9 5 -20 -23
-46 -36 -34 -3 3 -10 -4 -17 -15 -6 -12 -17 -21 -25 -21 -9 0 -23 -4 -33 -9
-9 -5 -32 -15 -50 -22 -36 -13 -41 -42 -7 -47 18 -3 19 -2 2 8 -21 13 -13 30
14 30 11 0 19 -7 19 -16 0 -25 61 -74 92 -74 14 0 32 -2 40 -5 7 -2 27 13 43
34 17 21 33 37 36 35 4 -2 10 3 13 12 10 26 23 7 18 -26 -3 -25 -8 -29 -23
-25 -11 4 -19 2 -19 -4 0 -5 17 -8 37 -6 20 2 32 0 26 -3 -6 -4 -9 -24 -8 -45
2 -26 -1 -40 -11 -44 -13 -5 -12 -7 1 -17 8 -6 18 -23 20 -38 3 -15 10 -40 16
-55 6 -16 10 -29 10 -30 -5 -16 4 -23 34 -29 41 -7 51 -30 30 -70 -19 -37 -19
-45 2 -37 11 4 14 3 9 -5 -4 -7 -1 -15 8 -18 9 -3 13 -10 10 -15 -3 -5 -10 -7
-15 -4 -5 4 -9 -3 -9 -14 0 -27 15 -34 31 -15 12 14 14 14 20 -3 7 -20 -37
-77 -53 -67 -4 3 -8 -2 -8 -12 0 -12 -3 -14 -12 -6 -7 5 -24 13 -38 17 -24 7
-24 6 -6 -7 13 -10 15 -17 8 -22 -7 -4 -16 -4 -22 -1 -5 3 -10 -1 -10 -9 0 -9
5 -16 10 -16 6 0 13 0 18 0 4 0 7 6 7 13 1 15 26 11 40 -6 6 -7 19 -11 30 -9
17 4 18 3 5 -14 -11 -13 -11 -16 -2 -10 11 7 12 4 3 -13 -7 -11 -16 -21 -20
-21 -5 0 -12 -7 -15 -16 -6 -15 -4 -15 11 -3 9 8 14 9 10 3 -11 -18 13 -31 68
-39 61 -8 69 -14 56 -48 -7 -18 -7 -27 2 -30 9 -3 8 -8 -2 -18 -8 -8 -11 -9
-7 -2 7 13 -19 12 -31 -2 -4 -4 -2 -5 5 -1 6 4 12 2 12 -3 0 -17 -18 -13 -29
7 -8 14 -11 14 -12 2 -1 -8 -1 -18 0 -22 0 -3 -7 -5 -17 -4 -9 2 -17 8 -17 14
0 6 -4 14 -9 19 -5 4 -6 3 -2 -4 3 -6 2 -14 -4 -18 -5 -3 -10 -1 -10 4 0 6 -3
10 -7 10 -5 -1 -10 0 -13 1 -22 8 -38 6 -34 -5 4 -9 -4 -12 -25 -10 -23 2 -28
-1 -23 -13 4 -11 2 -13 -8 -7 -8 5 -11 4 -6 -3 4 -6 13 -9 21 -5 8 3 15 0 15
-7 0 -6 -8 -10 -17 -8 -10 1 -24 -1 -32 -6 -9 -6 -12 -5 -7 2 3 6 2 13 -4 17
-5 3 -10 1 -10 -5 0 -6 -5 -8 -10 -5 -6 4 -7 11 -4 17 4 7 2 8 -5 4 -6 -4 -9
-12 -6 -17 4 -5 2 -9 -3 -9 -17 0 -22 13 -9 29 11 14 10 14 -5 2 -10 -7 -15
-17 -12 -22 6 -10 -25 -7 -43 4 -6 4 -15 3 -18 -3 -5 -8 -11 -8 -20 0 -10 8
-15 8 -20 -1 -6 -8 -10 -7 -16 2 -7 11 -9 9 -10 -6 l0 -20 -9 20 -9 20 -2 -20
c-1 -11 -2 -28 -2 -38 0 -13 -3 -15 -10 -8 -7 7 -16 7 -29 0 -15 -8 -20 -5
-28 16 -12 31 -20 33 -13 3 3 -17 2 -19 -5 -9 -8 11 -10 11 -14 0 -3 -8 -9
-11 -13 -7 -4 4 -2 16 6 25 13 16 12 17 -3 4 -10 -7 -18 -21 -18 -30 0 -14 -2
-14 -10 -1 -6 10 -4 20 6 31 12 14 12 16 0 16 -8 0 -14 -5 -13 -11 1 -5 -5
-10 -13 -11 -8 0 -15 -9 -15 -20 -1 -11 -6 -19 -13 -17 -7 1 -12 -3 -12 -9 0
-6 -7 -4 -15 5 -16 16 -20 31 -7 22 5 -3 9 2 9 10 0 10 -4 11 -11 4 -17 -17
-29 -11 -15 8 13 15 12 16 -3 3 -10 -7 -18 -19 -18 -25 0 -17 -46 -14 -62 4
-11 12 -11 12 4 2 11 -9 18 -10 23 -2 3 5 5 10 3 11 -28 7 -40 4 -48 -9 -5
-10 -10 -12 -10 -7 0 11 -50 14 -50 3 0 -5 -5 -8 -11 -8 -5 0 -8 4 -5 8 3 5
-1 9 -8 9 -7 0 -13 -6 -13 -13 0 -7 4 -11 8 -8 4 2 10 0 13 -5 7 -11 -13 -9
-32 2 -7 5 -9 14 -6 20 5 9 3 9 -6 0 -11 -10 -11 -15 1 -30 12 -16 11 -16 -8
1 -13 10 -20 23 -16 29 3 6 1 7 -6 3 -6 -4 -9 -11 -6 -16 3 -4 -4 -10 -15 -13
-11 -3 -20 -1 -20 5 0 5 -4 7 -9 3 -6 -3 -14 2 -19 11 -8 15 -10 15 -16 -1 -3
-9 -3 -22 1 -27 3 -7 1 -8 -6 -4 -6 4 -19 2 -28 -6 -14 -11 -16 -11 -9 0 6 10
2 13 -16 10 -14 -1 -33 4 -42 11 -19 16 -89 24 -80 10 3 -5 -2 -9 -11 -9 -9 0
-14 -4 -11 -8 2 -4 -10 -7 -27 -7 -18 1 -35 -4 -39 -9 -5 -7 -8 -6 -8 3 0 12
-3 11 -12 -2 -12 -15 -16 -15 -42 -2 -26 14 -28 14 -22 -3 5 -14 4 -14 -9 2
-8 10 -11 24 -8 30 4 6 -1 5 -10 -2 -9 -8 -22 -10 -29 -6 -8 5 -8 1 2 -11 15
-19 14 -19 -11 -3 -14 9 -31 13 -37 9 -6 -4 -52 -7 -101 -6 -49 0 -87 -3 -84
-8 2 -4 9 -4 15 -1 7 4 8 2 4 -5 -4 -6 -11 -9 -16 -6 -5 3 -11 1 -15 -4 -3 -6
-13 -7 -22 -4 -12 5 -14 3 -8 -8 7 -12 6 -12 -7 -1 -13 11 -17 11 -21 0 -2 -7
-2 -2 -1 12 4 25 4 25 -11 -3 -10 -17 -21 -25 -28 -20 -23 14 -48 11 -42 -6 3
-8 3 -12 -1 -8 -4 4 -14 1 -22 -6 -11 -8 -14 -8 -9 0 4 6 3 14 -3 18 -5 3 -10
15 -10 25 0 12 -7 18 -19 17 -11 0 -18 -4 -16 -8 3 -3 -3 -15 -11 -25 -15 -18
-15 -18 -10 8 4 19 2 26 -9 24 -8 -1 -18 -6 -22 -11 -4 -4 -2 -5 6 0 9 5 12 4
8 -3 -7 -10 -32 -11 -42 0 -4 3 -21 2 -38 -4 -18 -5 -37 -10 -44 -11 -7 0 -10
-4 -7 -8 6 -10 -47 -6 -65 5 -10 6 -12 5 -7 -2 5 -8 -1 -13 -16 -14 -37 -2
-42 -3 -56 -12 -7 -4 -16 -5 -19 -2 -4 3 -1 6 5 6 6 0 9 7 5 17 -5 12 -3 14 7
8 9 -5 11 -4 6 4 -5 7 -12 9 -19 3 -7 -5 -23 -8 -37 -7 -22 1 -26 -3 -28 -27
-2 -21 2 -28 15 -28 13 0 18 -9 19 -32 1 -35 -12 -50 -63 -73 -33 -15 -64 -43
-90 -82 -12 -17 -12 -25 -2 -41 10 -16 10 -26 1 -47 -19 -41 -15 -53 20 -60
36 -8 78 -41 78 -61 0 -7 -18 -28 -40 -45 -22 -18 -40 -40 -40 -50 0 -17 -57
-69 -75 -69 -4 0 -26 -9 -49 -20 -23 -10 -57 -26 -76 -35 -19 -8 -46 -22 -60
-29 -14 -8 -54 -27 -90 -43 -36 -15 -67 -32 -69 -38 -2 -5 14 -19 35 -30 51
-26 55 -55 14 -92 -17 -15 -45 -35 -62 -44 -34 -17 -80 -115 -71 -150 8 -30
-54 -89 -137 -129 l-70 -34 0 -553 0 -553 640 0 c352 0 640 3 640 8 0 4 -9 18
-19 32 -15 18 -17 29 -9 43 7 15 7 18 -3 15 -7 -2 -14 -16 -14 -31 -1 -15 2
-24 8 -20 6 3 7 1 3 -5 -7 -11 -36 -6 -34 6 2 22 -4 42 -13 42 -6 0 -9 -6 -6
-13 3 -8 -4 -14 -20 -15 -25 -2 -24 6 5 41 14 16 14 17 -1 11 -12 -4 -17 -1
-17 11 0 9 4 14 10 10 5 -3 8 14 6 42 -4 60 2 77 19 63 10 -9 13 -7 10 7 -2
10 -4 20 -4 23 -1 2 -6 -1 -13 -8 -17 -17 -28 -15 -28 6 0 10 -3 22 -7 26 -4
3 -8 14 -9 22 -1 9 1 13 4 9 4 -4 7 -12 7 -18 0 -7 5 -12 10 -12 6 0 16 -4 23
-8 6 -5 12 -5 12 0 0 4 5 1 10 -7 16 -25 11 3 -6 30 l-15 25 7 -25 c6 -24 6
-24 -9 -5 -19 25 0 41 23 20 8 -8 24 -12 35 -11 11 2 27 0 36 -5 10 -5 21 -3
29 4 10 9 11 9 5 -1 -5 -9 -1 -12 11 -10 15 2 18 -3 16 -22 -1 -14 1 -20 5
-15 11 15 46 13 56 -3 5 -8 3 -20 -5 -30 -11 -15 -11 -16 3 -4 15 11 19 6 34
-40 10 -31 14 -64 10 -85 -6 -34 -19 -43 -29 -20 -3 6 -3 1 1 -13 5 -23 4 -24
-11 -11 -16 13 -17 12 -11 -15 l6 -29 -15 25 c-11 18 -15 20 -16 8 0 -9 -2
-22 -3 -30 -2 -7 -2 -9 1 -5 2 4 10 3 17 -3 7 -6 37 -10 66 -8 48 3 53 5 63
34 13 35 55 95 56 77 0 -6 -5 -15 -10 -18 -6 -3 -10 -13 -10 -21 0 -9 5 -12
12 -8 8 5 9 2 5 -9 -4 -10 -2 -17 4 -17 6 0 8 -7 5 -16 -3 -8 -2 -12 4 -9 6 3
10 1 10 -4 0 -20 44 -11 75 14 31 26 28 33 -6 15 -10 -6 -19 -7 -19 -2 0 5 11
14 25 20 14 6 25 17 25 24 0 9 -3 8 -10 -2 -5 -8 -10 -13 -11 -10 0 3 -2 13
-4 22 -2 10 1 20 6 24 17 10 10 36 -8 30 -17 -6 -17 -5 -1 7 14 11 15 27 11
107 -3 52 -7 97 -9 99 -2 2 -12 -14 -22 -37 -16 -38 -20 -42 -54 -42 -21 0
-38 5 -38 10 0 22 50 108 65 114 26 10 35 7 35 -9 0 -18 1 -18 36 0 16 8 38
15 49 15 18 0 17 2 -7 25 -15 14 -36 25 -47 25 -16 0 -24 13 -38 58 -10 31
-21 58 -25 60 -16 7 -7 21 10 16 16 -5 16 -5 -1 6 -21 14 -23 34 -1 26 8 -3
12 -2 9 4 -3 6 -13 10 -21 10 -8 0 -14 5 -14 11 0 5 -5 7 -11 3 -7 -4 -8 -26
-4 -63 14 -126 14 -130 -16 -162 -15 -17 -37 -45 -49 -63 -33 -54 -40 -57
-106 -45 -32 5 -81 17 -109 26 -27 9 -56 18 -64 20 -10 3 -8 8 10 20 41 28 89
77 104 107 20 40 19 80 -5 126 -24 47 -26 83 -4 101 13 10 34 10 117 0 56 -7
108 -17 115 -23 15 -13 17 -11 26 25 5 22 3 29 -15 36 -28 10 -16 18 41 26 70
10 84 9 75 -6 -4 -6 2 -13 14 -16 12 -3 21 -9 21 -14 0 -5 7 -9 16 -9 8 0 12
5 9 10 -8 13 1 13 24 1 9 -5 23 -6 31 -1 10 6 7 14 -14 35 -26 25 -26 29 -11
44 19 20 25 13 56 -69 26 -68 30 -109 14 -146 l-12 -29 -13 26 c-17 38 -58 55
-79 34 -15 -15 -14 -16 2 -9 14 5 16 2 10 -12 -6 -17 -5 -18 12 -4 17 14 18
14 5 -10 -10 -21 -10 -23 1 -12 19 18 34 15 18 -4 -12 -15 -11 -16 9 -10 16 6
22 3 22 -8 0 -9 5 -16 11 -16 6 0 9 -7 5 -15 -4 -12 0 -14 17 -10 16 4 31 -1
48 -15 17 -15 19 -20 7 -16 -23 7 -23 2 4 -45 14 -25 27 -38 36 -34 10 3 12 0
9 -10 -4 -8 2 -20 14 -28 19 -14 18 -47 -3 -47 -6 0 -7 -16 -3 -39 4 -27 2
-49 -9 -69 -17 -33 -24 -59 -37 -147 -5 -33 -11 -66 -14 -72 -3 -10 15 -13 70
-13 68 0 74 2 81 23 13 41 115 249 129 264 8 8 15 21 15 29 0 8 3 14 8 14 4 0
13 14 20 30 8 17 18 28 23 24 5 -3 9 3 10 13 0 10 4 6 10 -11 6 -23 4 -37 -12
-62 -11 -18 -24 -34 -30 -36 -5 -2 -12 -21 -16 -42 -4 -24 -2 -37 3 -33 6 3 9
-10 7 -31 -2 -35 -2 -35 5 -7 l8 30 6 -30 c4 -20 0 -42 -13 -68 -11 -21 -17
-42 -14 -46 2 -5 -1 -11 -9 -14 -14 -6 -29 -47 -16 -47 4 0 23 24 41 54 19 30
44 60 57 65 15 7 21 7 17 1 -9 -15 8 -12 33 6 30 21 28 34 -5 28 -27 -5 -27
-5 -8 10 16 13 17 15 3 10 -27 -9 -21 3 10 21 16 10 19 14 7 11 -20 -6 -20 -6
-1 9 11 8 25 15 30 15 6 0 4 4 -4 10 -12 8 -12 10 3 16 25 9 34 -3 19 -27 -9
-14 -10 -25 -2 -39 8 -15 8 -20 -1 -20 -8 0 -10 -13 -5 -42 6 -40 5 -42 -10
-23 -15 19 -15 19 -10 -5 3 -14 8 -42 11 -62 6 -39 21 -47 44 -26 11 10 13 10
7 1 -9 -16 40 -18 49 -3 4 6 -1 7 -12 3 -15 -6 -16 -4 -6 9 7 8 11 18 8 21 -3
4 -2 5 1 2 7 -5 64 22 64 31 0 2 -9 0 -19 -6 -31 -16 -36 -12 -15 12 10 12 13
18 7 14 -7 -4 -13 -5 -13 -3 0 11 39 82 44 80 3 -2 6 -1 6 2 0 3 0 11 0 19 0
8 -8 17 -17 20 -10 4 -14 4 -10 0 4 -4 -1 -16 -10 -27 -10 -11 -12 -17 -5 -13
6 4 12 5 12 2 0 -3 -9 -10 -19 -16 -14 -7 -22 -7 -27 2 -4 6 -3 8 3 5 15 -9
23 55 10 71 -9 11 -7 13 9 10 10 -1 22 -7 26 -13 4 -5 8 -1 8 10 0 18 2 17 13
-5 16 -32 47 -39 47 -10 0 20 1 21 25 3 31 -23 31 -25 -1 -56 -14 -14 -38 -60
-54 -101 l-28 -76 725 0 724 0 -6 21 c-6 19 -4 21 16 15 67 -18 69 -18 69 -3
0 8 5 17 12 19 6 2 -6 15 -27 28 -26 16 -40 20 -43 12 -7 -22 -20 -12 -32 23
-6 19 -20 41 -30 48 -20 14 -36 56 -135 347 -62 184 -66 210 -28 210 10 0 12
6 8 23 -7 22 -7 22 10 2 9 -11 14 -15 10 -8 -3 7 3 21 13 31 11 11 21 25 24
32 3 9 11 6 27 -11 l22 -24 -7 30 c-7 28 -6 29 12 15 10 -8 24 -21 30 -29 9
-11 12 -11 18 4 4 10 2 21 -4 25 -6 4 -11 27 -12 51 0 24 -5 50 -10 56 -6 7
-11 36 -12 65 -2 36 -11 68 -29 98 -15 25 -27 54 -27 66 0 31 -59 146 -89 173
l-26 23 27 -16 c16 -9 29 -12 33 -6 3 5 12 7 20 4 18 -7 31 22 17 39 -16 18
-41 98 -29 90 6 -4 7 -1 1 8 -5 8 -9 19 -9 24 -1 12 -13 44 -26 68 -8 14 -5
17 20 17 l30 0 -6 50 c-5 43 -3 50 13 56 40 12 94 39 94 46 0 14 59 38 92 38
18 0 55 -7 82 -15 57 -17 110 -20 101 -5 -3 6 1 10 9 10 9 0 16 9 16 20 0 13
5 18 15 14 8 -4 22 -3 31 0 13 5 10 11 -14 31 -17 14 -35 25 -42 25 -6 0 -8 4
-5 10 3 5 1 10 -5 10 -7 0 -10 6 -7 14 3 7 0 19 -6 25 -8 8 -8 14 0 22 11 11
-2 57 -36 124 -12 21 -21 45 -21 52 0 8 -7 16 -15 19 -8 4 -15 14 -15 23 0 10
-3 21 -7 25 -4 3 -8 15 -10 26 -8 50 -17 81 -34 112 -13 26 -11 30 10 23 11
-3 22 -1 26 5 4 6 19 9 34 5 42 -9 56 14 36 61 -8 20 -13 40 -10 43 3 3 23 6
43 7 31 1 38 -2 39 -19 2 -18 1 -18 -11 -2 -10 14 -14 15 -24 3 -14 -17 -19
-16 91 -23 87 -6 95 2 48 44 -16 14 -31 37 -33 51 -2 14 -7 28 -12 32 -5 3
-10 24 -10 47 -1 31 -6 43 -23 52 -13 7 -23 18 -23 24 0 7 -11 10 -29 7 -38
-5 -64 31 -59 85 3 35 5 38 33 37 55 -3 56 -3 47 -21 -5 -10 -5 -31 -1 -48 l8
-30 -3 33 c-1 17 1 32 6 32 4 0 7 3 6 8 -3 14 14 42 22 37 5 -3 11 -1 14 3 3
5 27 6 53 2 26 -4 62 -5 80 -3 30 5 31 7 17 28 -8 12 -12 24 -9 27 3 2 -2 5
-10 5 -8 0 -15 -6 -15 -13 0 -6 -13 -14 -29 -16 -21 -3 -28 -1 -24 9 5 11 -2
15 -23 12 -12 -1 -22 24 -17 39 5 11 9 9 19 -9 10 -18 13 -20 14 -7 0 29 -50
45 -77 25 -16 -12 -17 -27 -2 -27 5 0 8 4 4 9 -3 5 0 13 7 17 7 4 10 4 6 -1
-4 -4 -3 -14 3 -21 8 -9 4 -12 -15 -10 -17 2 -26 -2 -26 -10 0 -8 -4 -14 -10
-14 -5 0 -10 9 -10 21 0 11 5 17 10 14 6 -3 10 -2 10 4 0 5 -5 13 -10 16 -6 4
-7 11 -4 17 4 7 2 8 -4 4 -7 -4 -21 -1 -33 7 -11 8 -30 12 -41 9 -17 -4 -20
-2 -15 11 5 12 1 17 -13 17 -11 0 -20 -5 -20 -11 0 -5 5 -7 10 -4 6 3 10 1 10
-4 0 -6 -7 -11 -15 -11 -23 0 -18 28 8 41 12 7 24 11 27 10 3 -1 6 5 8 13 2 9
-2 16 -8 16 -7 0 -9 -7 -6 -16 5 -14 4 -15 -9 -4 -9 7 -13 22 -10 34 3 12 2
15 -1 8 -3 -6 -11 -9 -17 -5 -22 13 -39 13 -28 -1 7 -9 7 -17 -2 -26 -6 -8 -1
-6 12 5 22 18 24 18 18 2 -4 -10 -3 -16 2 -12 5 3 12 1 15 -4 8 -13 -18 -21
-45 -14 -15 4 -20 3 -15 -5 4 -7 2 -13 -3 -13 -6 -1 -15 -3 -21 -4 -5 -1 -19
-3 -30 -4 -11 0 -20 -8 -20 -17 0 -8 -5 -12 -11 -8 -6 3 -24 -6 -40 -22 -23
-22 -29 -36 -29 -70 0 -38 4 -46 38 -71 20 -15 39 -31 40 -36 2 -4 7 -5 11 -3
4 3 8 -1 8 -9 0 -8 -4 -12 -8 -10 -4 3 -5 -9 -2 -26 3 -20 -1 -37 -12 -50 -17
-18 -17 -44 -2 -172 2 -16 0 -30 -4 -33 -4 -2 -6 -20 -4 -39 2 -19 -1 -32 -6
-29 -10 6 -12 -59 -2 -70 4 -3 8 -13 9 -20 1 -7 5 -23 8 -34 7 -22 -20 -40
-37 -23 -5 5 -19 3 -35 -5 -25 -13 -28 -12 -41 6 -7 11 -19 20 -26 20 -13 0
-75 76 -75 91 0 5 -20 37 -45 72 -25 36 -45 69 -45 75 0 5 -6 15 -14 21 -15
13 -55 126 -81 235 -17 66 -17 83 2 208 3 20 14 46 24 57 20 22 26 61 8 61
-13 0 -7 48 9 78 8 14 10 32 5 45 -4 12 -8 33 -8 47 -1 14 -5 43 -10 65 -7 35
-11 57 -14 88 -1 5 -5 6 -10 3 -9 -6 -9 -20 2 -46 4 -8 5 -24 3 -35 -2 -11 1
-26 6 -32 6 -7 8 -20 4 -29 -3 -8 -1 -24 5 -35 15 -29 19 -59 8 -59 -6 0 -7
-6 -3 -12 4 -8 3 -10 -2 -5 -5 5 -10 18 -11 30 -4 68 -14 111 -25 118 -19 12
-19 81 0 102 16 18 17 18 29 1 12 -17 14 -17 29 4 14 20 24 22 112 22 202 1
380 41 513 115 24 13 27 13 37 -10 9 -19 7 -28 -9 -48 -10 -14 -19 -28 -19
-32 0 -4 -22 -35 -49 -69 -85 -107 -89 -128 -33 -177 20 -18 36 -36 35 -39 -1
-4 3 -7 10 -8 26 -2 47 -9 54 -17 4 -4 2 -5 -5 0 -11 6 -12 3 -3 -14 7 -11 14
-21 17 -21 3 0 3 4 0 9 -3 5 1 11 9 15 8 3 14 0 12 -7 -1 -8 16 -12 56 -11 31
0 57 -3 57 -7 0 -3 26 -7 57 -8 32 0 65 -3 73 -6 9 -3 25 4 35 15 16 17 17 25
7 59 -7 21 -9 52 -6 70 4 20 3 31 -5 31 -6 0 -11 10 -11 23 -1 12 -2 60 -3
107 -1 47 -5 90 -10 97 -4 6 -3 23 3 37 5 14 6 34 3 43 -6 15 -8 14 -14 -7
l-7 -25 -1 28 c-1 15 4 27 9 27 6 0 10 5 10 11 0 5 -5 7 -12 3 -8 -5 -10 9 -5
54 3 42 2 62 -6 62 -6 0 -2 7 9 15 10 8 14 15 7 15 -6 0 -14 14 -18 31 -4 17
-13 42 -21 57 -18 35 -18 42 7 126 11 40 30 79 41 89 21 17 22 17 45 -5 12
-13 49 -88 81 -168 85 -207 139 -321 168 -351 34 -35 141 -84 239 -109 91 -23
183 -25 275 -6 72 15 92 12 61 -11 -20 -13 -21 -23 -20 -128 2 -118 0 -127
-71 -430 -17 -71 -45 -155 -68 -205 -36 -74 -169 -289 -204 -329 -7 -8 -23
-29 -36 -45 l-23 -31 2 -345 3 -345 -37 -108 c-21 -60 -58 -157 -83 -215 -42
-97 -47 -118 -55 -221 -10 -138 -46 -272 -97 -372 -48 -94 -76 -190 -67 -236
7 -41 -3 -96 -16 -87 -17 10 -50 -28 -47 -52 2 -17 -15 -40 -65 -88 -37 -36
-74 -66 -82 -66 -8 0 -19 -9 -25 -20 -6 -11 -21 -20 -33 -21 -22 0 -22 0 2
-10 17 -7 30 -5 47 6 27 18 34 19 34 5 0 -6 -11 -15 -25 -20 -33 -13 -32 -19
5 -18 24 1 32 7 37 26 3 15 1 27 -8 33 -10 6 -11 9 -1 9 6 0 12 7 12 15 0 11
7 14 24 9 13 -3 27 -1 30 5 4 6 14 11 22 11 12 0 12 -4 -2 -28 -16 -25 -15
-24 14 6 17 18 29 38 26 46 -4 9 9 15 42 20 27 3 51 3 55 -1 10 -10 17 -56 18
-110 l1 -43 1299 0 1299 0 9 27 c8 22 11 24 16 10 3 -9 2 -17 -3 -17 -6 0 -10
-4 -10 -10 0 -14 27 -12 33 3 4 9 6 9 6 0 1 -18 721 -19 721 -2 0 7 -19 48
-42 93 -23 44 -54 106 -70 137 -15 31 -41 72 -58 90 -17 19 -38 48 -47 64 -8
17 -36 49 -61 72 -26 22 -44 44 -41 47 6 6 96 -83 159 -159 23 -27 51 -62 63
-76 12 -14 35 -44 51 -67 16 -23 31 -42 35 -42 3 0 31 -38 61 -84 l55 -85 893
0 892 -1 0 1680 c0 1673 0 1680 -20 1680 -11 0 -20 4 -20 9 0 6 10 8 21 6 12
-3 19 -1 15 2 -10 10 -56 12 -50 2 2 -4 0 -10 -6 -14 -5 -3 -10 -1 -10 4 0 6
-5 11 -11 11 -5 0 -7 -4 -4 -10 3 -5 -4 -11 -17 -12 -13 0 -36 -3 -53 -5 -16
-3 -75 -4 -129 -3 -71 0 -102 -3 -108 -12 -6 -11 -8 -11 -8 0 0 7 -5 10 -10 7
-17 -10 -90 -13 -90 -3 0 11 -23 6 -32 -7 -4 -6 -8 -2 -8 8 0 12 -4 16 -12 11
-17 -11 -48 -12 -42 -2 3 4 0 8 -5 8 -6 0 -11 -4 -11 -8 0 -5 -7 -9 -15 -9 -8
0 -15 3 -15 6 0 3 -41 7 -91 9 -51 2 -88 -1 -85 -6 3 -5 -1 -9 -9 -9 -8 0 -11
5 -8 10 4 6 -1 8 -11 4 -10 -4 -25 -3 -35 2 -10 6 -23 6 -31 1 -8 -5 -19 -6
-24 -2 -6 3 -33 7 -59 8 -27 1 -54 7 -60 13 -6 6 -23 11 -37 11 -14 0 -30 4
-35 9 -6 6 -26 6 -54 0 -32 -7 -46 -7 -52 2 -4 6 -12 8 -18 5 -6 -4 -11 -2
-11 4 0 6 -3 9 -7 7 -5 -3 -26 -8 -48 -11 -22 -4 -48 -9 -59 -12 -11 -4 -16
-2 -12 4 3 5 -3 12 -15 15 -18 5 -18 3 -7 -11 8 -10 1 -7 -15 5 -16 12 -34 20
-42 17 -7 -3 -16 0 -20 6 -5 8 -13 6 -26 -6 -16 -14 -23 -15 -42 -5 -13 7 -79
13 -157 16 -74 2 -145 6 -157 9 -13 3 -23 1 -23 -5 0 -5 -12 -6 -27 -3 -44 12
-77 11 -85 0 -5 -7 -8 -6 -8 4 0 13 -1 13 -10 0 -5 -8 -10 -10 -10 -4 0 7 -13
9 -37 5 -21 -3 -58 -4 -83 -1 -25 3 -57 2 -72 -3 -19 -6 -34 -4 -52 8 -23 16
-26 16 -32 1 -5 -13 -26 -16 -54 -6 -3 1 -20 1 -38 0 -18 -1 -40 4 -49 12 -14
11 -16 11 -8 -2 7 -13 6 -13 -7 -2 -9 7 -19 9 -22 4 -3 -5 -20 -8 -36 -7 -24
2 -30 -1 -26 -12 3 -8 1 -11 -4 -8 -5 3 -33 8 -62 10 -64 5 -79 8 -97 19 -9 6
-12 5 -8 -1 3 -5 -1 -10 -9 -10 -9 0 -13 6 -9 16 4 12 1 11 -9 -2 -14 -18 -14
-18 -20 1 -4 11 -14 23 -23 26 -13 5 -14 4 -4 -8 10 -12 8 -17 -7 -25 -15 -8
-23 -7 -33 6 -12 14 -12 16 1 8 12 -6 13 -5 3 5 -14 15 -86 15 -91 1 -2 -6
-12 -7 -28 -1 -13 5 -24 7 -24 4 0 -4 -6 -2 -12 4 -8 6 -76 10 -163 11 -82 0
-168 3 -190 5 -37 4 -131 7 -165 5 -8 -1 -59 2 -113 6 -54 4 -144 9 -200 11
-56 2 -133 6 -172 8 -38 2 -144 7 -235 11 -90 3 -167 8 -171 10 -3 3 2 28 12
57 l18 53 88 6 c98 7 724 3 763 -5 21 -5 207 7 300 19 95 12 680 23 1630 30
426 3 784 8 795 10 11 2 192 4 403 4 l382 1 0 440 c0 422 -1 441 -20 472 -25
42 -25 51 0 43 16 -5 20 -2 20 19 0 15 -6 35 -12 46 -10 15 -10 23 -2 28 17
10 18 212 2 212 -10 0 -10 2 0 8 9 7 12 47 10 168 l-3 159 -31 3 c-19 2 -36
-3 -44 -12 -7 -9 -18 -16 -25 -16 -21 0 -46 -36 -39 -55 5 -12 0 -23 -16 -35
-37 -28 -20 -54 30 -47 38 5 38 4 29 -20 -13 -36 -11 -50 9 -49 9 1 18 -3 20
-9 1 -5 -17 -11 -40 -13 -24 -1 -57 -10 -74 -19 -25 -13 -37 -14 -64 -4 -70
24 -148 5 -207 -51 -17 -17 -42 -36 -55 -42 -13 -6 -24 -22 -26 -36 -4 -38
-22 -68 -43 -73 -33 -9 -16 -77 19 -77 13 -1 10 -4 -8 -14 -29 -17 -40 -12
-40 16 0 12 -8 22 -21 25 -17 5 -20 11 -15 36 5 22 0 36 -19 59 -14 16 -25 37
-25 47 0 32 -71 73 -86 50 -3 -5 -20 -9 -38 -9 -19 0 -39 -7 -47 -16 -7 -8
-21 -13 -32 -10 -10 2 -30 0 -43 -6 -18 -8 -30 -8 -47 0 -16 9 -38 9 -82 1
-120 -21 -135 -22 -135 -9 0 10 -3 10 -15 0 -8 -7 -14 -22 -14 -34 0 -59 -39
-202 -65 -235 -9 -11 -12 -9 -16 10 -4 17 -17 28 -47 37 -36 12 -46 11 -77 -3
-33 -16 -36 -16 -68 7 -18 12 -35 24 -37 25 -2 1 4 14 13 27 15 24 15 25 -1
19 -13 -5 -15 -3 -8 13 4 10 9 30 12 44 4 24 4 24 -12 -3 -16 -28 -17 -28 -36
-11 -22 20 -25 8 -4 -20 14 -19 22 -66 9 -53 -4 3 -13 0 -21 -8 -9 -10 -34
-14 -82 -12 -63 2 -72 -1 -124 -35 -31 -21 -64 -49 -73 -63 -9 -14 -20 -25
-26 -25 -12 0 -70 41 -85 61 -20 27 -70 44 -88 29 -11 -9 -19 -8 -37 4 -54 38
-206 -5 -266 -75 -22 -25 -45 -40 -67 -45 -19 -3 -39 -12 -45 -19 -9 -11 -17
-10 -44 6 -47 28 -239 32 -279 6 -33 -21 -34 -43 -5 -66 12 -10 18 -23 14 -29
-9 -15 -39 -15 -53 -1 -19 19 -95 15 -126 -6 -22 -14 -49 -19 -115 -20 -63 -1
-97 -6 -124 -19 l-37 -19 -31 26 c-35 30 -48 32 -84 15 -22 -9 -31 -7 -67 18
-32 22 -55 29 -103 32 -66 4 -86 -7 -101 -56 -5 -18 -2 -25 13 -29 11 -2 25
-15 32 -29 11 -19 11 -26 -1 -40 -11 -14 -26 -16 -87 -11 -74 6 -75 5 -104
-26 -28 -31 -29 -32 -43 -12 -35 50 -69 73 -126 85 -50 11 -64 10 -99 -4 -56
-22 -84 -20 -146 10 -40 19 -62 25 -86 20 -18 -4 -55 -9 -83 -12 -27 -4 -57
-13 -66 -21 -14 -12 -22 -12 -58 1 -36 12 -43 12 -48 0 -3 -8 -2 -21 1 -30 5
-13 1 -15 -16 -11 -145 37 -363 33 -498 -7 -47 -14 -92 -26 -101 -26 -8 0 -49
-31 -91 -70 -74 -68 -78 -70 -128 -70 -66 0 -78 7 -166 97 -82 83 -142 115
-291 158 -91 27 -275 52 -400 56 -48 1 -74 6 -77 15 -3 7 0 15 7 18 7 2 4 5
-6 5 -14 1 -18 8 -16 29 1 15 -1 34 -5 44 -4 9 -1 29 8 46 14 26 14 31 1 36
-17 6 -20 26 -4 26 5 0 7 -4 4 -10 -3 -5 -4 -10 0 -10 3 0 11 12 17 28 14 33
13 28 22 79 4 24 12 45 17 49 5 3 9 16 9 29 0 24 16 42 28 30 3 -3 0 -10 -7
-15 -19 -11 -6 -41 14 -34 8 3 12 11 8 17 -11 17 -12 52 -3 67 7 12 11 11 27
0 17 -14 17 -14 0 7 -12 14 -15 23 -8 28 6 3 11 0 12 -7 0 -7 5 -1 11 15 5 15
14 27 19 27 6 0 6 7 0 19 -6 10 -7 21 -4 25 3 3 1 6 -5 6 -6 0 -9 7 -5 16 3 8
12 13 19 10 8 -3 11 0 7 10 -3 7 0 14 7 14 6 0 8 5 5 10 -3 6 -1 10 4 10 6 0
11 5 11 11 0 7 8 18 18 25 16 13 16 13 -3 15 -11 1 -30 0 -42 -1 -17 -1 -21 3
-17 14 3 9 10 16 16 16 5 0 7 4 4 9 -3 5 -15 7 -25 4 -11 -3 -27 -1 -36 5 -13
6 -5 9 29 7 25 0 46 1 46 3 0 13 -39 31 -66 32 -17 0 -37 7 -44 15 -14 17 -38
19 -60 5 -13 -9 -13 -11 0 -19 25 -17 3 -23 -36 -11 -20 7 -58 13 -85 13 -27
0 -49 4 -49 8 0 14 26 26 48 23 12 -2 37 3 55 11 l32 15 -45 -6 c-64 -8 -69
-9 -76 -16 -3 -4 -13 -4 -22 -1 -10 4 -13 2 -8 -5 4 -7 2 -12 -3 -12 -13 0
-15 27 -2 34 5 4 21 7 34 8 14 1 24 5 21 9 -2 4 4 10 13 12 17 4 17 5 1 6 -10
0 -18 6 -18 11 0 10 13 14 43 11 9 -1 17 2 17 6 0 12 -144 45 -164 37 -9 -4
-16 -1 -16 6 0 9 14 11 54 6 57 -6 62 -2 40 36 -9 16 -13 16 -59 -7 -27 -14
-53 -31 -57 -38 -5 -9 -8 -7 -8 4 0 22 -29 33 -36 14 -8 -19 -24 -19 -24 0 0
14 -12 19 -32 16 -5 0 -8 8 -8 20 0 14 -5 19 -17 17 -12 -2 -17 -11 -15 -26 4
-26 -4 -28 -26 -5 -13 12 -17 32 -15 77 1 50 -1 56 -8 35 -16 -42 -49 -45 -81
-7 -32 37 -34 46 -12 55 17 6 48 -23 39 -37 -3 -4 2 -13 11 -20 13 -11 15 -8
12 23 -1 20 -6 33 -10 31 -5 -3 -20 4 -34 15 -31 24 -35 25 -50 8z m-34 -69
c0 -13 -23 -5 -28 10 -2 7 2 10 12 6 9 -3 16 -11 16 -16z m-36 -17 c3 -5 -1
-12 -10 -15 -27 -10 -35 -7 -22 9 15 17 25 19 32 6z m70 -6 c3 -8 1 -15 -4
-15 -6 0 -10 7 -10 15 0 8 2 15 4 15 2 0 6 -7 10 -15z m-24 -15 c0 -5 -4 -10
-9 -10 -6 0 -13 5 -16 10 -3 6 1 10 9 10 9 0 16 -4 16 -10z m217 -102 c-3 -8
-6 -5 -6 6 -1 11 2 17 5 13 3 -3 4 -12 1 -19z m-51 -53 c4 -8 9 -13 14 -10 4
2 5 -8 2 -22 -5 -25 -6 -26 -13 -6 -4 12 -12 24 -18 28 -6 3 -11 10 -11 16 0
15 20 10 26 -6z m-118 -48 c3 -12 -4 -17 -22 -17 -28 0 -33 9 -14 28 15 15 32
10 36 -11z m172 1 c0 -13 -23 -5 -28 10 -2 7 2 10 12 6 9 -3 16 -11 16 -16z
m11 -45 c-10 -17 -10 -16 -11 3 0 23 13 41 18 25 2 -6 -1 -18 -7 -28z m29 -14
c0 -6 -4 -7 -10 -4 -5 3 -10 11 -10 16 0 6 5 7 10 4 6 -3 10 -11 10 -16z m410
1 c0 -5 -6 -10 -14 -10 -8 0 -18 5 -21 10 -3 6 3 10 14 10 12 0 21 -4 21 -10z
m-260 -20 c0 -5 -5 -10 -11 -10 -5 0 -7 5 -4 10 3 6 8 10 11 10 2 0 4 -4 4
-10z m145 -10 c-3 -5 -11 -10 -16 -10 -6 0 -7 5 -4 10 3 6 11 10 16 10 6 0 7
-4 4 -10z m-566 -28 c-11 -18 -39 -26 -39 -12 0 5 33 25 48 29 1 1 -3 -7 -9
-17z m278 -4 c-3 -8 -6 -5 -6 6 -1 11 2 17 5 13 3 -3 4 -12 1 -19z m218 1
c-52 -24 -80 -24 -35 1 19 11 44 19 55 19 13 0 7 -7 -20 -20z m77 1 c-19 -12
-44 -32 -58 -47 -13 -14 -24 -22 -24 -16 0 11 47 56 75 71 35 20 41 13 7 -8z
m115 4 c-3 -3 -12 -4 -19 -1 -8 3 -5 6 6 6 11 1 17 -2 13 -5z m-543 -60 c3 -8
2 -12 -4 -9 -6 3 -10 10 -10 16 0 14 7 11 14 -7z m-191 -44 c-3 -12 -8 -19
-11 -16 -5 6 5 36 12 36 2 0 2 -9 -1 -20z m820 13 c-7 -2 -21 -2 -30 0 -10 3
-4 5 12 5 17 0 24 -2 18 -5z m-861 -35 c-7 -7 -10 -5 -7 8 5 29 6 30 12 16 3
-8 1 -18 -5 -24z m-22 -58 c0 -11 -4 -20 -9 -20 -6 0 -9 9 -8 20 1 11 5 20 9
20 4 0 8 -9 8 -20z m28 -5 c-3 -3 -9 2 -12 12 -6 14 -5 15 5 6 7 -7 10 -15 7
-18z m-122 -122 c-10 -10 -19 5 -10 18 6 11 8 11 12 0 2 -7 1 -15 -2 -18z
m5998 -39 c5 -12 17 -15 52 -12 l46 3 -5 -39 c-3 -22 -13 -43 -21 -48 -9 -5
-16 -17 -16 -28 0 -22 -25 -50 -46 -50 -8 0 -14 7 -14 15 0 8 -4 15 -10 15 -5
0 -10 -10 -10 -23 0 -14 -12 -32 -30 -45 -16 -13 -30 -29 -30 -36 0 -11 -5
-12 -25 -3 -19 9 -25 20 -25 43 0 52 43 148 88 197 30 31 37 33 46 11z m-6024
-53 c0 -5 -6 -12 -12 -14 -8 -4 -7 -6 4 -6 9 -1 18 3 20 8 2 5 11 4 21 -4 16
-11 13 -13 -22 -13 -36 -1 -59 16 -44 32 10 9 33 7 33 -3z m6272 -23 c-7 -7
-12 -8 -12 -2 0 14 12 26 19 19 2 -3 -1 -11 -7 -17z m-6307 -28 c3 -6 -1 -7
-9 -4 -18 7 -21 14 -7 14 6 0 13 -4 16 -10z m6675 -30 c0 -5 -4 -10 -9 -10 -6
0 -13 5 -16 10 -3 6 1 10 9 10 9 0 16 -4 16 -10z m235 -12 c4 -13 8 -27 9 -33
1 -5 5 -13 11 -17 6 -5 6 -11 -1 -18 -8 -8 -16 -7 -28 5 -9 9 -14 20 -11 25 3
4 -2 10 -10 14 -8 3 -15 15 -15 26 0 28 36 26 45 -2z m220 -57 c0 -29 -4 -36
-27 -42 -27 -7 -28 -6 -28 31 0 38 11 51 40 47 10 -2 15 -14 15 -36z m-75 -26
c0 -8 -4 -15 -10 -15 -5 0 -10 7 -10 15 0 8 5 15 10 15 6 0 10 -7 10 -15z
m-7160 -104 c-16 -31 -32 -36 -18 -7 6 14 15 26 20 26 5 0 4 -9 -2 -19z m-30
-61 c0 -5 -4 -10 -10 -10 -5 0 -10 5 -10 10 0 6 5 10 10 10 6 0 10 -4 10 -10z
m5832 -42 c-7 -7 -12 -8 -12 -2 0 14 12 26 19 19 2 -3 -1 -11 -7 -17z m-5788
-14 c3 -8 2 -12 -4 -9 -6 3 -10 10 -10 16 0 14 7 11 14 -7z m80 -9 c-4 -8 -11
-15 -16 -15 -6 0 -5 6 2 15 7 8 14 15 16 15 2 0 1 -7 -2 -15z m168 -85 c-2
-22 -6 -40 -8 -40 -11 0 -20 38 -13 58 13 35 25 26 21 -18z m-208 -6 c6 -16 0
-34 -12 -34 -4 0 -8 11 -8 25 -2 28 11 34 20 9z m-37 -26 c-3 -7 -5 -2 -5 12
0 14 2 19 5 13 2 -7 2 -19 0 -25z m2243 23 c0 -5 -22 -18 -50 -30 -61 -26
-116 -74 -135 -115 l-14 -31 6 30 c11 51 92 124 161 145 15 5 28 9 30 9 1 1 2
-3 2 -8z m-2033 -43 c-3 -7 -5 -2 -5 12 0 14 2 19 5 13 2 -7 2 -19 0 -25z
m5113 5 c0 -5 -4 -15 -10 -23 -11 -18 -25 -7 -17 15 6 15 27 21 27 8z m-5219
-58 c-6 -35 -9 -41 -10 -20 -1 30 9 78 15 73 2 -2 -1 -26 -5 -53z m1644 27
l19 -27 -24 16 c-24 16 -38 39 -23 39 4 0 17 -13 28 -28z m-1470 -40 c-6 -7
-34 11 -29 19 3 5 11 3 19 -4 7 -6 12 -13 10 -15z m15 -22 c0 -5 -5 -10 -11
-10 -5 0 -7 5 -4 10 3 6 8 10 11 10 2 0 4 -4 4 -10z m1746 -29 c-1 -18 -5 -27
-13 -24 -17 7 -17 53 1 53 8 0 13 -11 12 -29z m-96 0 c0 -12 -20 -25 -27 -18
-7 7 6 27 18 27 5 0 9 -4 9 -9z m386 -51 c4 -8 12 -18 18 -22 7 -5 7 -8 -1 -8
-7 0 -13 -6 -13 -14 0 -8 -16 -23 -35 -34 -33 -20 -34 -20 -40 -1 -4 10 -13
26 -21 34 -14 13 -12 19 20 49 20 18 36 40 36 47 0 13 18 -12 36 -51z m-572
30 c18 -18 -23 -76 -54 -75 -21 0 -25 5 -25 29 -1 16 -7 32 -14 34 -8 3 -7 8
6 18 19 15 70 11 87 -6z m554 -257 c2 -7 -3 -13 -11 -13 -9 0 -17 -5 -19 -12
-4 -12 -48 19 -48 35 0 13 73 3 78 -10z m-1721 -15 c-3 -8 -6 -5 -6 6 -1 11 2
17 5 13 3 -3 4 -12 1 -19z m1145 -40 c-7 -7 -12 -8 -12 -2 0 6 3 14 7 17 3 4
9 5 12 2 2 -3 -1 -11 -7 -17z m556 -24 c2 -11 -3 -26 -11 -32 -22 -18 -55 21
-37 43 18 21 44 15 48 -11z m-188 -99 c0 -5 -5 -3 -10 5 -5 8 -10 20 -10 25 0
6 5 3 10 -5 5 -8 10 -19 10 -25z m-2200 -30 c11 -13 10 -14 -4 -9 -9 3 -16 10
-16 15 0 13 6 11 20 -6z m145 -15 c-3 -5 -13 -10 -21 -10 -8 0 -14 5 -14 10 0
6 9 10 21 10 11 0 17 -4 14 -10z m2437 -175 c3 -13 1 -22 -3 -19 -9 5 -13 44
-5 44 2 0 6 -11 8 -25z m368 5 c-40 -27 -50 -31 -44 -15 3 8 10 13 14 10 5 -3
11 -1 15 5 3 5 12 10 18 10 7 0 6 -4 -3 -10z m-2789 -43 c-8 -8 -11 -7 -11 4
0 20 13 34 18 19 3 -7 -1 -17 -7 -23z m-24 -24 c-3 -3 -13 -3 -21 -1 -15 3
-15 6 1 28 l18 25 3 -23 c2 -13 1 -26 -1 -29z m1783 37 c0 -5 -5 -10 -11 -10
-5 0 -7 5 -4 10 3 6 8 10 11 10 2 0 4 -4 4 -10z m945 -32 c-1 -13 -9 -24 -19
-26 -17 -4 -17 -2 -1 22 21 32 22 32 20 4z m-2772 -61 c3 -7 -3 -19 -13 -25
-14 -9 -20 -8 -23 1 -10 30 25 53 36 24z m1824 -44 c-3 -10 -5 -2 -5 17 0 19
2 27 5 18 2 -10 2 -26 0 -35z m-1652 28 c3 -5 1 -12 -5 -16 -5 -3 -10 1 -10 9
0 18 6 21 15 7z m4325 -172 c0 -5 -9 -9 -20 -9 -22 0 -27 16 -7 23 15 5 27 -1
27 -14z m-1591 -3 c24 -15 -9 -26 -79 -26 -73 0 -104 11 -75 27 21 12 135 11
154 -1z m2101 -29 c0 -9 -11 -12 -35 -9 -41 5 -37 22 6 22 17 0 29 -5 29 -13z
m-1840 -47 c0 -5 -4 -10 -10 -10 -5 0 -10 5 -10 10 0 6 5 10 10 10 6 0 10 -4
10 -10z m529 -49 l24 -19 -41 0 c-42 -1 -59 9 -47 28 10 15 37 11 64 -9z
m-2126 -208 c-3 -7 -13 -13 -22 -12 -10 0 -11 2 -3 6 6 2 10 8 8 12 -3 4 1 8
8 8 8 0 12 -6 9 -14z m-278 -161 c-3 -3 -11 0 -18 7 -9 10 -8 11 6 5 10 -3 15
-9 12 -12z m0 -32 c3 -5 1 -10 -4 -10 -6 0 -11 5 -11 10 0 6 2 10 4 10 3 0 8
-4 11 -10z m-1025 -142 c0 -2 -9 -4 -20 -5 -22 -2 -23 -1 -14 21 5 13 8 13 20
1 8 -7 14 -15 14 -17z m-490 -76 c0 -15 -2 -15 -10 -2 -13 20 -13 33 0 25 6
-3 10 -14 10 -23z m-889 -39 c13 -16 12 -17 -3 -4 -10 7 -18 15 -18 17 0 8 8
3 21 -13z m2435 -8 c9 -9 11 -15 4 -15 -6 0 -8 -4 -5 -10 3 -5 2 -10 -3 -10
-10 0 -22 23 -22 41 0 13 9 11 26 -6z m-2815 -32 c13 -16 12 -17 -3 -4 -17 13
-22 21 -14 21 2 0 10 -8 17 -17z m3879 -168 c-7 -8 -18 -15 -24 -15 -6 0 -2 7
8 15 25 19 32 19 16 0z m70 -59 c0 -2 -7 -7 -16 -10 -8 -3 -12 -2 -9 4 6 10
25 14 25 6z m-57 -13 c-7 -2 -19 -2 -25 0 -7 3 -2 5 12 5 14 0 19 -2 13 -5z
m2362 -124 c11 -17 -1 -21 -15 -4 -8 9 -8 15 -2 15 6 0 14 -5 17 -11z m170
-190 c10 -15 -1 -23 -20 -15 -9 3 -13 10 -10 16 8 13 22 13 30 -1z m-2050 -69
c66 -60 123 -101 168 -119 99 -40 307 -146 303 -156 -2 -5 -9 -9 -15 -7 -7 1
-9 -3 -6 -9 5 -8 12 -6 23 5 14 14 17 14 31 0 9 -8 37 -28 63 -45 56 -36 228
-186 228 -199 0 -5 -17 -12 -37 -16 -21 -4 -42 -9 -48 -12 -5 -3 -20 -7 -33
-8 -19 -2 -22 1 -17 19 4 14 3 17 -2 9 -5 -6 -22 -11 -39 -9 -35 3 -152 60
-182 88 -12 11 -22 17 -22 13 0 -4 -11 5 -25 20 -17 19 -31 25 -44 21 -12 -3
-51 7 -95 26 -63 28 -76 37 -78 58 -2 16 -8 25 -17 23 -9 -2 -11 3 -7 13 3 9
6 24 7 33 0 14 2 13 9 -3 7 -17 9 -17 9 -3 1 13 7 17 24 14 12 -3 32 -5 45 -5
14 -1 21 -5 16 -12 -4 -7 3 -6 17 2 13 7 25 12 27 11 9 -7 42 0 38 7 -8 12
-86 19 -86 7 0 -5 -10 0 -23 12 -15 14 -42 24 -81 28 -54 7 -57 8 -40 21 13
10 35 13 67 10 42 -4 47 -2 34 10 -17 17 -177 29 -177 13 0 -6 -6 -10 -14 -10
-9 0 -12 7 -9 20 3 12 0 20 -7 20 -7 0 -10 8 -8 18 4 15 0 17 -21 14 -21 -3
-29 3 -41 30 -14 31 -20 74 -13 90 6 13 37 -4 78 -42z m-125 20 c0 -5 -5 -10
-11 -10 -5 0 -7 5 -4 10 3 6 8 10 11 10 2 0 4 -4 4 -10z m1619 -214 c-2 -2
-22 -6 -44 -9 -27 -4 -35 -3 -25 3 14 9 79 15 69 6z m-1361 -119 c9 -7 9 -13
1 -23 -13 -16 -33 -19 -24 -4 3 5 1 19 -6 31 -11 22 -4 21 29 -4z m-2777 -70
c22 -17 39 -51 39 -79 0 -28 -49 -158 -60 -158 -4 0 -11 -7 -14 -16 -4 -10 -2
-13 7 -8 6 4 -2 -8 -19 -27 -17 -19 -35 -43 -40 -54 -7 -17 -9 -14 -12 17 -2
30 -11 44 -40 65 -20 16 -43 35 -50 43 -10 11 -12 12 -6 1 5 -9 -2 -8 -19 5
-15 10 -26 28 -26 39 0 19 1 19 8 1 7 -18 8 -18 24 5 9 13 17 19 17 13 0 -6 7
-11 15 -11 8 0 12 4 9 9 -10 15 8 31 18 17 8 -11 9 -10 4 3 -3 10 1 23 8 30 7
7 11 19 8 27 -3 8 0 11 6 7 10 -6 27 21 23 37 -1 5 3 6 9 2 5 -3 10 2 11 12 0
12 2 13 6 5 4 -10 9 -8 20 7 16 24 31 26 54 8z m3939 -41 l55 -32 2 -83 c2
-123 4 -128 59 -133 l46 -3 -6 30 c-4 16 -11 32 -16 33 -6 2 -7 8 -4 13 3 6
11 6 20 -2 7 -6 11 -15 8 -20 -3 -5 2 -9 10 -9 18 0 39 -34 28 -45 -4 -5 -2
-5 5 -1 16 9 61 -15 93 -48 20 -22 22 -30 13 -45 -10 -15 -8 -27 8 -57 10 -21
19 -46 19 -56 0 -10 5 -18 11 -18 5 0 7 4 4 10 -9 15 26 62 42 55 12 -4 13 2
8 35 -5 32 -3 41 9 46 23 9 53 -21 62 -60 3 -17 13 -40 20 -51 13 -19 10 -20
-67 -37 -45 -10 -84 -20 -87 -22 -3 -3 1 -26 8 -51 8 -30 9 -50 3 -56 -11 -11
-5 -69 8 -69 5 0 9 -9 9 -20 0 -23 10 -26 28 -8 7 7 12 8 12 3 0 -6 5 -3 10 5
7 12 11 9 20 -15 7 -20 21 -35 41 -42 17 -7 33 -20 36 -30 2 -10 26 -35 51
-55 74 -59 303 -277 358 -341 21 -24 21 -25 2 -41 -10 -9 -35 -16 -56 -16 -61
1 -72 -1 -72 -10 0 -4 -8 -7 -17 -6 -11 0 -23 15 -31 36 l-12 35 5 -35 c4 -34
4 -34 -11 -15 -16 20 -16 20 -11 -3 3 -12 1 -20 -4 -16 -5 3 -9 0 -9 -7 0 -7
-3 -9 -6 -6 -4 3 -16 1 -27 -4 -23 -13 -71 7 -63 27 3 7 -2 10 -13 7 -11 -3
-21 2 -24 11 -4 9 -11 16 -17 16 -6 0 -17 6 -25 13 -7 7 -28 26 -46 41 -31 27
-32 29 -15 42 16 11 17 18 7 45 -15 43 -13 49 5 19 l15 -25 -7 25 c-32 113
-34 126 -17 105 15 -19 15 -19 8 10 -10 45 0 28 29 -45 27 -72 34 -70 12 4
-13 43 -13 46 2 34 13 -11 15 -11 9 5 -17 43 -17 49 2 17 11 -19 20 -30 21
-23 0 6 6 13 13 16 6 2 4 3 -5 2 -10 -2 -18 1 -18 6 0 5 8 9 18 10 11 1 9 4
-8 9 -14 4 -18 9 -10 9 27 2 -11 21 -43 21 -32 0 -76 -38 -69 -60 3 -13 2 -13
-6 -1 -8 11 -15 9 -36 -12 -25 -26 -26 -28 -11 -56 8 -17 15 -36 15 -43 -1 -7
-7 2 -15 20 -13 30 -16 32 -30 19 -8 -9 -12 -22 -9 -30 8 -21 -40 -19 -104 4
-66 24 -90 25 -72 4 15 -18 5 -36 -16 -28 -8 3 -25 -4 -38 -16 -28 -26 -53
-19 -61 18 -8 37 -59 85 -117 110 l-48 20 16 -24 c9 -14 20 -25 25 -25 11 0
44 -108 36 -117 -10 -9 -59 15 -52 26 3 5 0 13 -6 17 -8 4 -7 9 2 15 12 7 12
9 0 9 -7 0 -11 6 -7 15 3 8 1 15 -5 15 -6 0 -8 3 -5 8 17 28 -103 89 -138 70
-13 -7 -17 -7 -12 0 6 10 -57 29 -77 24 -5 -1 -5 3 -1 9 5 9 1 10 -14 7 -12
-4 -20 -2 -16 3 3 5 -1 9 -9 9 -8 0 -24 9 -37 20 -27 23 -19 26 18 6 62 -34
182 -71 182 -56 0 4 -19 12 -42 19 -23 7 -52 20 -65 28 -23 16 -32 43 -13 43
7 0 7 6 0 19 -6 13 -6 21 0 23 18 6 -20 48 -43 49 -12 0 -16 3 -9 6 15 6 16
33 1 53 -8 12 -9 11 -5 -6 5 -15 0 -24 -19 -34 -22 -12 -29 -10 -66 14 -22 15
-57 30 -77 33 l-35 6 33 -31 c18 -18 28 -32 22 -32 -6 0 -14 5 -17 10 -3 6
-19 10 -35 10 -19 0 -43 14 -77 45 -52 48 -42 59 22 22 44 -25 75 -26 51 -1
-8 8 -18 14 -22 14 -12 0 -87 53 -101 70 -9 12 -8 16 4 20 13 5 13 7 -1 19 -9
7 -13 18 -10 23 3 5 -2 16 -12 23 -12 9 -14 14 -6 15 7 0 10 5 7 10 -10 16
-25 12 -25 -7 0 -21 -13 -8 -17 17 -3 18 2 19 40 15 69 -8 90 -12 131 -24 58
-16 55 -7 -8 23 -31 15 -56 29 -56 32 0 2 9 0 19 -6 11 -5 33 -10 50 -10 16 0
42 -5 57 -10 15 -6 29 -8 32 -6 7 7 -60 46 -70 40 -4 -3 -8 -1 -8 5 0 5 -11 8
-24 5 -16 -3 -26 2 -30 12 -5 13 -9 14 -21 4 -18 -15 -20 0 -2 20 6 8 2 6 -10
-4 -12 -10 -26 -15 -32 -12 -5 3 -12 1 -14 -4 -3 -6 -4 -5 -3 2 2 7 8 14 14
14 22 3 22 4 4 22 -22 22 -62 35 -62 19 0 -6 -3 -8 -6 -5 -3 4 -1 16 6 27 8
16 8 21 -2 22 -9 0 -10 2 -1 5 7 3 10 11 7 18 -3 8 4 16 18 19 18 5 31 -3 61
-36 21 -23 45 -54 54 -68 9 -14 39 -36 69 -50 30 -13 54 -26 54 -30 0 -4 14
-4 31 1 16 5 40 5 52 1 l22 -8 -22 -7 c-12 -4 -34 -4 -49 0 -17 4 -25 3 -21
-3 8 -13 70 -29 137 -35 19 -2 41 -7 48 -12 7 -4 19 -5 27 -2 9 3 15 -1 15 -9
0 -8 8 -15 18 -16 15 0 14 -2 -3 -10 -17 -8 -16 -9 7 -6 15 2 25 0 22 -4 -3
-5 -13 -9 -22 -10 -14 0 -13 -2 3 -9 19 -8 19 -8 -5 -18 -14 -6 -18 -11 -9
-11 8 -1 41 12 72 28 31 16 60 25 63 20 3 -5 10 -7 15 -4 5 4 14 -5 21 -20 12
-27 41 -39 96 -39 17 0 32 -3 32 -7 0 -4 9 -5 20 -2 11 3 20 0 20 -6 0 -6 3
-10 8 -10 19 3 25 -2 12 -11 -11 -8 -7 -9 14 -4 21 5 27 4 22 -5 -6 -9 0 -10
21 -6 21 5 24 4 13 -4 -12 -9 -10 -11 13 -11 17 0 26 -4 22 -10 -4 -6 -3 -10
2 -9 4 1 15 1 23 0 13 -1 13 -2 0 -12 -12 -8 -9 -9 13 -5 17 4 26 2 25 -5 -2
-6 12 -12 30 -14 l33 -3 -41 30 c-22 16 -40 32 -40 35 0 2 15 2 33 -2 l32 -6
-28 16 c-21 12 -26 20 -18 29 7 9 4 12 -14 11 -23 0 -49 -15 -27 -15 7 0 12
-7 12 -15 0 -8 -7 -15 -15 -15 -8 0 -15 8 -15 18 0 10 -5 23 -11 29 -6 6 -8
21 -4 33 5 17 13 21 31 17 14 -2 27 -1 29 3 2 4 16 5 30 2 14 -2 25 -1 25 2 0
9 -52 30 -69 27 -26 -5 -61 21 -61 44 0 29 -21 47 -35 31 -5 -6 -10 -20 -9
-31 0 -28 -16 -75 -27 -75 -5 0 -9 -9 -9 -20 0 -35 -29 -11 -32 27 -4 51 -29
64 -67 35 -17 -12 -37 -22 -45 -22 -24 0 -132 43 -119 47 11 4 4 26 -43 130
-16 36 -11 56 19 72 102 55 130 86 133 151 2 46 2 44 19 30 9 -7 14 -19 11
-27 -3 -7 -1 -13 3 -13 5 0 12 -22 16 -50 10 -74 26 -61 24 20 -2 73 -8 84
-59 110 -17 9 -25 10 -28 1 -4 -13 -92 -15 -92 -2 0 17 25 28 45 20 30 -11 35
-11 35 6 0 21 7 19 70 -19z m-50 -36 c0 -16 -17 -20 -28 -7 -8 10 -6 13 9 14
10 1 19 -2 19 -7z m180 -40 c15 -11 31 -16 35 -12 5 4 5 1 1 -5 -4 -8 -1 -13
9 -13 15 0 15 -1 1 -16 -9 -8 -16 -20 -16 -25 0 -15 -36 -10 -50 6 -10 12 -10
15 1 15 9 0 10 3 3 8 -11 7 -34 45 -34 56 0 12 23 5 50 -14z m-4320 -71 c0
-11 -4 -18 -10 -14 -5 3 -7 12 -3 20 7 21 13 19 13 -6z m4394 -5 c11 -28 7
-35 -14 -24 -11 6 -17 16 -14 25 8 20 20 19 28 -1z m-89 -3 c3 -5 1 -12 -5
-16 -5 -3 -10 1 -10 9 0 18 6 21 15 7z m-3385 -39 c0 -4 11 -9 26 -10 16 -1
23 2 18 9 -4 7 -1 10 7 7 8 -3 13 -14 11 -24 -2 -15 -1 -16 6 -5 12 17 32 6
32 -18 0 -10 7 -24 15 -31 11 -9 15 -33 14 -101 -1 -49 -5 -92 -10 -94 -4 -3
-3 -20 2 -38 5 -17 9 -40 9 -49 0 -28 -19 -21 -26 10 -4 15 -13 38 -20 52 -7
14 -27 70 -44 125 -17 55 -38 114 -46 132 -17 37 -17 43 -4 43 6 0 10 -4 10
-8z m2250 -32 c0 -5 8 -10 18 -10 10 0 23 -5 28 -10 8 -8 19 -7 38 1 24 11 29
10 54 -14 16 -15 37 -27 48 -27 11 0 26 -6 33 -12 11 -11 12 -10 6 0 -6 11 -3
12 13 3 38 -20 16 -41 -47 -43 -154 -5 -172 -4 -188 14 -15 17 -15 18 6 18 12
0 24 7 28 15 8 24 -5 31 -29 16 -19 -12 -23 -11 -35 5 -20 27 -16 54 7 54 11
0 20 -4 20 -10z m-3794 -37 c11 -15 14 -15 15 -3 0 8 4 4 8 -9 3 -13 15 -25
25 -27 30 -4 37 -18 20 -42 -15 -22 -44 -30 -44 -12 0 6 7 10 15 10 20 0 15
22 -10 40 -19 14 -33 13 -27 -2 6 -19 -19 -6 -34 17 -15 22 -53 38 -40 16 3
-5 -1 -14 -9 -21 -18 -15 -20 0 -2 22 24 31 64 36 83 11z m687 -2 c4 -1 7 -6
7 -12 0 -6 -9 -9 -20 -6 -11 3 -23 0 -27 -5 -4 -7 -11 -4 -20 7 -7 11 -13 13
-13 7 0 -7 -4 -12 -10 -12 -5 0 -10 7 -10 16 0 12 9 14 43 10 23 -3 45 -5 50
-5z m58 -43 c4 -35 8 -85 9 -103 1 -11 -8 -55 -20 -98 -16 -56 -26 -77 -36
-73 -8 3 -14 1 -14 -4 0 -6 5 -10 12 -10 7 0 5 -7 -5 -18 -15 -16 -15 -22 0
-78 16 -59 14 -94 -6 -94 -5 0 -9 15 -9 34 0 18 -8 45 -17 60 -17 26 -17 71 0
124 5 15 3 22 -5 22 -7 0 -21 10 -31 21 -15 17 -25 20 -53 15 -21 -4 -37 -2
-41 4 -4 6 -16 8 -27 4 -12 -4 -18 -2 -14 4 7 12 46 23 46 13 0 -4 8 -7 18 -5
39 5 62 17 62 33 0 14 2 14 10 1 8 -13 10 -13 10 2 0 9 -7 18 -16 20 -10 2 -2
10 21 22 37 20 68 15 71 -13 3 -25 5 -25 19 1 12 22 13 32 3 55 -7 15 -20 34
-28 40 -13 11 -13 14 0 23 21 13 40 12 41 -2z m-195 -91 c4 -4 -5 -11 -20 -17
-38 -14 -45 -13 -39 8 4 17 45 23 59 9z m-723 -59 c13 -13 47 -49 76 -82 43
-48 52 -64 49 -87 -6 -38 8 -26 58 49 51 76 65 92 74 87 11 -7 -7 -79 -21 -84
-16 -5 -67 -60 -74 -80 -3 -9 -17 -24 -31 -35 -22 -15 -28 -16 -35 -5 -5 8 -9
9 -9 4 0 -6 -12 -18 -27 -27 -36 -21 -48 -8 -49 52 -3 118 -7 141 -22 135 -11
-4 -12 -2 -5 7 14 17 12 50 -2 45 -6 -3 -12 6 -13 19 -2 30 1 30 31 2z m2005
-23 c-3 -3 -9 2 -12 12 -6 14 -5 15 5 6 7 -7 10 -15 7 -18z m-1365 -25 c-3
-11 -9 -20 -15 -20 -5 0 -4 9 2 20 6 11 12 20 14 20 2 0 2 -9 -1 -20z m4412 0
c3 -5 1 -10 -4 -10 -6 0 -11 5 -11 10 0 6 2 10 4 10 3 0 8 -4 11 -10z m-4445
-7 c-1 -13 -26 -43 -36 -43 -5 0 -36 -26 -69 -56 -66 -62 -161 -135 -178 -138
-7 -1 -22 -8 -34 -14 -13 -7 -23 -11 -23 -8 0 3 -12 -1 -27 -9 -15 -8 -30 -12
-35 -9 -4 3 -8 0 -8 -5 0 -6 -5 -11 -10 -11 -7 0 -7 7 0 20 8 14 17 19 30 15
10 -3 21 -1 25 5 4 6 13 9 20 6 8 -3 19 2 26 10 7 8 17 13 23 11 6 -3 22 10
36 29 14 18 35 37 46 43 35 16 94 72 94 89 0 8 3 12 7 9 3 -4 21 4 39 18 18
14 37 25 43 25 6 0 11 5 11 10 0 6 5 10 10 10 6 0 10 -3 10 -7z m4996 -96 c8
3 14 0 14 -6 0 -6 -4 -11 -10 -11 -5 0 -10 -9 -10 -19 0 -24 -18 -37 -32 -23
-8 8 -7 20 2 43 8 18 16 27 18 21 2 -6 10 -8 18 -5z m-4816 -98 c0 -33 -6 -47
-34 -75 -21 -21 -44 -34 -59 -34 -38 0 -40 14 -6 46 16 15 27 34 25 41 -3 7 1
13 9 13 8 0 22 11 31 25 23 36 34 31 34 -16z m4706 9 c-10 -6 -20 -7 -24 -3
-9 8 20 25 31 18 5 -3 2 -10 -7 -15z m144 -8 c0 -5 -5 -10 -11 -10 -5 0 -7 5
-4 10 3 6 8 10 11 10 2 0 4 -4 4 -10z m-1061 -39 c-8 -2 -7 -6 2 -12 25 -16
-40 -10 -72 7 -24 12 -28 18 -19 29 9 11 18 11 56 -3 25 -9 40 -18 33 -21z
m1137 20 c-10 -11 -15 -25 -11 -30 3 -6 1 -11 -4 -11 -6 0 -11 5 -11 11 0 18
20 49 32 49 6 0 3 -9 -6 -19z m-5247 -64 c0 -13 -3 -16 -6 -8 -5 11 -7 11 -14
0 -7 -11 -9 -9 -9 7 0 11 3 24 6 27 11 11 24 -3 23 -26z m-30 -67 c0 -23 -1
-23 -9 -5 -5 11 -9 31 -9 45 0 23 1 23 9 5 5 -11 9 -31 9 -45z m-19 -23 c0
-24 -3 -28 -10 -17 -5 8 -10 11 -10 5 -1 -5 -6 1 -11 14 -7 18 -6 27 3 32 19
12 28 1 28 -34z m-615 5 c-3 -3 -11 0 -18 7 -9 10 -8 11 6 5 10 -3 15 -9 12
-12z m6060 -31 c-4 -18 -13 -30 -23 -30 -20 -1 -75 -8 -82 -11 -3 -1 -8 -2
-12 -1 -5 0 -8 -5 -8 -11 0 -9 -3 -9 -9 1 -11 17 16 64 31 55 5 -3 15 0 23 6
8 6 19 9 24 6 5 -4 12 -2 16 3 3 6 12 8 20 4 8 -3 15 1 15 8 0 7 3 10 6 6 3
-3 3 -19 -1 -36z m-5049 -43 c-21 -57 -58 -101 -84 -103 -12 -1 -22 2 -22 7 0
4 8 8 19 8 10 0 21 9 24 20 3 11 1 20 -4 20 -5 0 -9 -7 -9 -15 0 -8 -4 -15 -9
-15 -5 0 -5 15 1 34 6 19 16 34 22 33 5 -1 11 4 12 11 3 25 5 27 13 14 6 -10
12 -7 25 13 25 38 32 23 12 -27z m4633 -43 c0 -5 -4 -3 -9 5 -5 8 -9 22 -9 30
0 16 17 -16 18 -35z m-30 -50 c0 -5 -8 6 -19 25 -11 19 -19 40 -19 45 0 6 8
-6 19 -25 11 -19 19 -39 19 -45z m-4912 19 c-3 -3 -12 -4 -19 -1 -8 3 -5 6 6
6 11 1 17 -2 13 -5z m-836 -38 c-5 -6 -10 -15 -11 -21 -1 -5 -4 -12 -7 -15 -4
-3 -3 1 1 8 5 8 3 13 -5 11 -26 -3 -39 1 -39 12 0 5 4 8 9 5 5 -3 14 1 21 9 6
7 18 11 26 8 10 -3 11 -9 5 -17z m3169 -10 c0 -19 -7 -39 -16 -47 -15 -12 -16
-11 -9 10 5 16 4 21 -4 17 -12 -8 -11 21 2 42 15 22 27 12 27 -22z m3083 23
c9 -6 17 -19 17 -29 0 -11 4 -20 9 -20 11 0 21 -27 26 -70 l4 -30 -35 23 c-21
13 -37 33 -41 50 -4 22 -8 25 -19 16 -11 -9 -14 -7 -15 12 0 13 -3 18 -6 11
-4 -10 -8 -9 -19 5 -7 10 -13 23 -14 28 0 6 5 3 10 -5 8 -13 10 -13 10 1 0 19
43 23 73 8z m-468 -55 c-12 -12 -19 -14 -27 -6 -8 8 -7 13 6 18 11 4 15 13 10
28 -6 20 -5 20 11 -2 15 -20 15 -23 0 -38z m-283 24 c-7 -7 -12 -8 -12 -2 0
14 12 26 19 19 2 -3 -1 -11 -7 -17z m238 6 c0 -2 -9 -4 -20 -4 -11 0 -20 4
-20 9 0 5 9 7 20 4 11 -3 20 -7 20 -9z m-2647 -46 c-12 -11 -26 -16 -36 -12
-24 9 -21 23 3 17 12 -3 22 1 26 11 3 9 11 13 16 10 6 -4 2 -14 -9 -26z
m-3140 -5 c-17 -13 -16 -14 5 -8 23 7 23 6 5 -12 -13 -13 -19 -15 -21 -6 -2 7
-7 11 -12 8 -4 -3 -7 6 -6 18 1 19 6 22 24 19 21 -4 21 -5 5 -19z m1020 13 c4
-10 1 -13 -8 -9 -8 3 -12 9 -9 14 7 12 11 11 17 -5z m4597 -3 c0 -5 -5 -15
-10 -23 -8 -12 -10 -11 -10 8 0 12 5 22 10 22 6 0 10 -3 10 -7z m17 -50 c-3
-10 -5 -4 -5 12 0 17 2 24 5 18 2 -7 2 -21 0 -30z m-5597 14 c0 -2 -10 -12
-21 -23 -22 -19 -22 -19 -10 4 10 18 31 31 31 19z m5647 -63 c-4 -28 -4 -28
-6 4 -1 32 -15 43 -24 20 -3 -7 -6 0 -6 15 -1 28 -1 28 20 8 14 -13 19 -28 16
-47z m-6070 24 c-3 -7 -5 -2 -5 12 0 14 2 19 5 13 2 -7 2 -19 0 -25z m1303
-28 c0 -13 -1 -13 -10 0 -5 8 -10 22 -10 30 0 13 1 13 10 0 5 -8 10 -22 10
-30z m4797 -32 c-3 -8 -6 -5 -6 6 -1 11 2 17 5 13 3 -3 4 -12 1 -19z m1327 13
c5 -1 6 -4 2 -8 -10 -10 -66 -12 -66 -3 0 11 21 18 40 14 8 -1 19 -3 24 -3z
m-1284 -32 c0 -6 -4 -7 -10 -4 -5 3 -10 11 -10 16 0 6 5 7 10 4 6 -3 10 -11
10 -16z m27 -11 c-3 -8 -6 -5 -6 6 -1 11 2 17 5 13 3 -3 4 -12 1 -19z"/>
<path d="M8880 4763 l1 -38 15 28 c8 15 20 27 27 28 11 0 -20 17 -35 18 -5 1
-8 -16 -8 -36z"/>
<path d="M5970 1480 c19 -13 30 -13 30 0 0 6 -10 10 -22 10 -19 0 -20 -2 -8
-10z"/>
<path d="M5912 1432 c-25 -17 46 -60 73 -43 12 7 17 8 53 11 16 1 21 4 12 7
-8 3 -18 10 -21 16 -9 13 -100 20 -117 9z"/>
<path d="M2871 1234 c0 -11 3 -14 6 -6 3 7 2 16 -1 19 -3 4 -6 -2 -5 -13z"/>
<path d="M6680 769 c-14 -6 -33 -8 -42 -5 -10 2 -21 0 -24 -5 -3 -5 -2 -9 3
-8 4 1 15 1 23 0 12 -1 12 -3 2 -9 -9 -6 -10 -15 -3 -33 8 -19 10 -20 10 -5 1
12 6 16 16 12 21 -7 32 23 14 35 -9 7 -4 8 16 3 21 -4 26 -3 16 4 -11 8 -11
10 0 15 8 3 10 5 4 6 -5 0 -21 -5 -35 -10z"/>
<path d="M6803 719 c-29 -37 -30 -42 -18 -67 8 -15 17 -36 20 -46 3 -10 8 -17
10 -14 3 2 1 19 -4 36 -12 39 -7 41 14 5 13 -22 15 -24 12 -7 -4 17 -1 20 14
17 13 -4 19 0 19 11 0 9 -4 16 -10 16 -21 0 -9 20 13 21 21 1 21 1 -3 9 -23 7
-23 8 -3 9 12 1 24 5 27 10 3 4 -6 6 -21 3 -18 -3 -24 -1 -19 7 4 7 0 11 -11
11 -15 0 -16 2 -3 10 8 5 10 10 5 10 -6 0 -25 -18 -42 -41z"/>
<path d="M6581 721 c-1 -24 -1 -24 -17 -5 -16 20 -16 19 2 -33 4 -11 -1 -9
-11 6 -15 20 -19 21 -26 8 -11 -18 3 -58 30 -93 16 -20 20 -21 25 -8 3 8 1 24
-4 34 -6 10 -10 22 -10 27 1 4 8 -5 17 -22 l16 -30 14 43 c11 32 12 49 4 70
-10 25 -11 24 -6 -12 4 -35 3 -37 -9 -20 -8 10 -16 28 -19 39 -4 17 -5 16 -6
-4z m-37 -47 c3 -8 2 -12 -4 -9 -6 3 -10 10 -10 16 0 14 7 11 14 -7z m56 -19
c0 -5 -5 -3 -10 5 -5 8 -10 20 -10 25 0 6 5 3 10 -5 5 -8 10 -19 10 -25z m-21
-50 c0 -5 -6 -1 -14 9 -8 11 -15 24 -15 30 0 5 7 1 15 -10 8 -10 14 -23 14
-29z"/>
<path d="M6778 610 c9 -27 17 -48 19 -46 7 6 -19 96 -27 96 -5 0 -1 -22 8 -50z"/>
<path d="M6741 640 c0 -8 4 -22 9 -30 12 -18 12 -2 0 25 -6 13 -9 15 -9 5z"/>
<path d="M6735 587 c4 -18 2 -26 -4 -22 -7 4 -8 -1 -4 -11 4 -12 8 -14 11 -5
3 8 8 7 18 -6 13 -16 13 -14 1 12 -8 17 -17 37 -21 45 -3 8 -4 2 -1 -13z"/>
<path d="M6760 584 c0 -6 7 -19 16 -30 14 -18 14 -18 3 6 -14 31 -19 36 -19
24z"/>
<path d="M6695 561 c5 -16 4 -21 -4 -17 -7 5 -8 1 -4 -9 3 -9 9 -13 12 -8 3 4
9 10 13 13 3 3 0 14 -9 25 -15 19 -15 19 -8 -4z"/>
<path d="M7315 570 c3 -5 8 -10 11 -10 2 0 4 5 4 10 0 6 -5 10 -11 10 -5 0 -7
-4 -4 -10z"/>
<path d="M6720 521 c0 -6 4 -13 10 -16 6 -3 7 1 4 9 -7 18 -14 21 -14 7z"/>
<path d="M7415 450 c-3 -5 -1 -10 4 -10 6 0 11 5 11 10 0 6 -2 10 -4 10 -3 0
-8 -4 -11 -10z"/>
<path d="M7441 324 c0 -11 3 -14 6 -6 3 7 2 16 -1 19 -3 4 -6 -2 -5 -13z"/>
<path d="M7391 315 c0 -11 4 -29 9 -40 l9 -20 0 20 c0 11 -4 29 -9 40 l-9 20
0 -20z"/>
<path d="M7410 241 c0 -6 4 -13 10 -16 6 -3 7 1 4 9 -7 18 -14 21 -14 7z"/>
<path d="M7602 219 c6 -16 12 -28 14 -26 5 5 -13 57 -20 57 -3 0 0 -14 6 -31z"/>
<path d="M7492 205 c0 -16 2 -22 5 -12 2 9 2 23 0 30 -3 6 -5 -1 -5 -18z"/>
<path d="M7550 164 c0 -10 5 -26 10 -34 8 -11 9 -7 4 15 -8 37 -14 45 -14 19z"/>
<path d="M7612 110 c0 -14 2 -19 5 -12 2 6 2 18 0 25 -3 6 -5 1 -5 -13z"/>
<path d="M8306 5637 c3 -10 9 -15 12 -12 3 3 0 11 -7 18 -10 9 -11 8 -5 -6z"/>
<path d="M8630 5642 c0 -6 -6 -9 -14 -6 -22 8 -28 -12 -8 -27 16 -13 16 -13 2
5 -14 18 -13 19 2 13 17 -6 35 9 24 20 -3 4 -6 1 -6 -5z"/>
<path d="M8745 5640 c-3 -6 1 -7 9 -4 18 7 21 14 7 14 -6 0 -13 -4 -16 -10z"/>
<path d="M5633 5619 c9 -6 15 -14 12 -19 -6 -10 21 -7 31 3 4 4 14 1 23 -6 14
-11 14 -10 2 5 -7 10 -17 15 -22 12 -5 -3 -9 1 -9 8 0 10 -2 10 -9 -1 -6 -9
-11 -10 -15 -2 -4 6 -13 11 -19 11 -7 0 -4 -5 6 -11z"/>
<path d="M6455 5614 c-20 -15 -12 -17 19 -5 11 4 15 10 10 13 -5 4 -18 0 -29
-8z"/>
<path d="M6565 5619 c-4 -6 -5 -12 -2 -15 2 -3 7 2 10 11 7 17 1 20 -8 4z"/>
<path d="M6500 5611 c0 -6 4 -13 10 -16 6 -3 7 1 4 9 -7 18 -14 21 -14 7z"/>
<path d="M6925 5610 c-2 -3 0 -11 4 -18 5 -8 10 -6 18 7 9 14 8 18 -3 18 -8 0
-17 -3 -19 -7z"/>
<path d="M8415 5610 c-3 -6 1 -7 9 -4 18 7 21 14 7 14 -6 0 -13 -4 -16 -10z"/>
<path d="M6373 5585 c0 -14 3 -27 7 -30 4 -2 6 7 4 21 -3 35 -11 41 -11 9z"/>
<path d="M7116 5597 c3 -10 9 -15 12 -12 3 3 0 11 -7 18 -10 9 -11 8 -5 -6z"/>
<path d="M3358 5592 c-10 -2 -18 -12 -18 -23 0 -22 8 -24 32 -6 20 16 10 34
-14 29z"/>
<path d="M5765 5589 c-4 -6 -5 -12 -2 -15 2 -3 7 2 10 11 7 17 1 20 -8 4z"/>
<path d="M6280 5592 c0 -6 -6 -10 -12 -8 -7 1 -10 1 -5 -1 4 -3 4 -10 1 -16
-4 -7 1 -4 11 5 11 10 16 21 12 24 -4 4 -7 2 -7 -4z"/>
<path d="M7495 5590 c-3 -5 1 -10 10 -10 9 0 13 5 10 10 -3 6 -8 10 -10 10 -2
0 -7 -4 -10 -10z"/>
<path d="M3296 5581 c-4 -7 -5 -15 -2 -18 9 -9 19 4 14 18 -4 11 -6 11 -12 0z"/>
<path d="M5970 5585 c0 -2 6 -8 13 -14 10 -8 14 -7 14 2 0 8 -6 14 -14 14 -7
0 -13 -1 -13 -2z"/>
<path d="M6306 5578 c3 -4 11 -5 19 -1 21 7 19 12 -4 10 -11 0 -18 -5 -15 -9z"/>
<path d="M6750 5586 c0 -2 7 -7 16 -10 8 -3 12 -2 9 4 -6 10 -25 14 -25 6z"/>
<path d="M7176 5582 c-3 -5 1 -9 9 -9 8 0 15 4 15 9 0 4 -4 8 -9 8 -6 0 -12
-4 -15 -8z"/>
<path d="M7245 5581 c-3 -5 -1 -12 5 -16 5 -3 10 -4 10 0 0 3 9 1 19 -5 15 -7
22 -7 27 2 4 7 3 10 -1 5 -5 -4 -19 0 -31 8 -13 8 -25 11 -29 6z"/>
<path d="M7710 5574 c0 -8 5 -12 10 -9 6 4 8 11 5 16 -9 14 -15 11 -15 -7z"/>
<path d="M6214 5572 c4 -3 14 -7 22 -8 9 -1 13 0 10 4 -4 3 -14 7 -22 8 -9 1
-13 0 -10 -4z"/>
<path d="M7436 5572 c-3 -5 1 -9 9 -9 8 0 12 4 9 9 -3 4 -7 8 -9 8 -2 0 -6 -4
-9 -8z"/>
<path d="M7629 5563 c-13 -17 -13 -17 6 -3 11 8 22 16 24 17 2 2 0 3 -6 3 -6
0 -17 -8 -24 -17z"/>
<path d="M6880 5556 c0 -2 9 -6 20 -9 11 -3 18 -1 14 4 -5 9 -34 13 -34 5z"/>
<path d="M3317 5544 c-8 -8 3 -34 14 -34 11 0 12 27 0 34 -4 3 -11 3 -14 0z"/>
<path d="M3260 5523 c0 -7 4 -13 9 -13 5 0 11 6 14 13 3 8 -1 14 -9 14 -8 0
-14 -6 -14 -14z"/>
<path d="M3490 5506 c0 -2 7 -7 16 -10 8 -3 12 -2 9 4 -6 10 -25 14 -25 6z"/>
<path d="M5090 5495 c-8 -10 -8 -15 1 -21 8 -4 9 -3 5 4 -5 8 3 12 26 12 25 0
29 -3 18 -10 -13 -8 -12 -10 3 -10 27 0 15 23 -16 31 -17 5 -30 2 -37 -6z"/>
<path d="M4315 5490 c3 -5 11 -10 16 -10 6 0 7 5 4 10 -3 6 -11 10 -16 10 -6
0 -7 -4 -4 -10z"/>
<path d="M3570 5475 c-11 -13 -10 -18 6 -30 24 -18 54 -29 61 -21 3 3 11 -2
18 -11 8 -11 14 -12 19 -5 9 15 -39 46 -62 40 -12 -4 -18 1 -18 13 0 12 4 15
10 9 6 -6 15 -10 21 -10 11 1 -24 30 -36 30 -3 0 -12 -7 -19 -15z"/>
<path d="M3690 5480 c0 -6 7 -10 15 -10 8 0 15 2 15 4 0 2 -7 6 -15 10 -8 3
-15 1 -15 -4z"/>
<path d="M3686 5429 c12 -13 20 -16 22 -9 3 7 -2 16 -9 21 -25 16 -32 9 -13
-12z"/>
<path d="M3720 5410 c0 -5 5 -10 10 -10 6 0 10 5 10 10 0 6 -4 10 -10 10 -5 0
-10 -4 -10 -10z"/>
<path d="M3800 5330 c20 -13 33 -13 25 0 -3 6 -14 10 -23 10 -15 0 -15 -2 -2
-10z"/>
<path d="M8465 5064 c-22 -8 -57 -16 -78 -18 -22 -2 -46 -11 -55 -20 -16 -16
-16 -18 1 -30 9 -7 17 -24 17 -37 0 -22 0 -22 14 -3 8 10 20 19 28 19 7 1 26
5 42 9 35 11 49 -6 41 -51 -8 -43 13 -44 40 -3 19 28 55 41 55 20 0 -14 27
-12 33 3 4 8 11 5 24 -11 16 -19 23 -21 43 -14 14 6 33 23 42 40 16 27 16 31
2 43 -9 7 -34 14 -56 15 -22 1 -45 7 -51 13 -6 6 -18 11 -27 11 -9 0 -25 7
-36 15 -23 18 -28 17 -79 -1z m42 -116 c-3 -8 -6 -5 -6 6 -1 11 2 17 5 13 3
-3 4 -12 1 -19z"/>
<path d="M8280 4970 c0 -5 5 -10 10 -10 6 0 10 5 10 10 0 6 -4 10 -10 10 -5 0
-10 -4 -10 -10z"/>
<path d="M8445 4940 c3 -5 8 -10 11 -10 2 0 4 5 4 10 0 6 -5 10 -11 10 -5 0
-7 -4 -4 -10z"/>
<path d="M8171 4806 c-7 -8 -20 -12 -29 -10 -11 4 -9 -1 7 -15 39 -35 76 -21
48 19 -12 18 -16 18 -26 6z"/>
<path d="M2685 4750 c-24 -9 -37 -24 -53 -65 l-12 -30 20 25 c12 14 27 32 34
41 8 9 20 19 27 21 8 3 12 8 9 10 -3 3 -14 2 -25 -2z"/>
<path d="M5350 4726 c0 -9 5 -16 10 -16 6 0 10 4 10 9 0 6 -4 13 -10 16 -5 3
-10 -1 -10 -9z"/>
<path d="M2740 4670 c-12 -8 -10 -9 7 -7 12 2 26 6 29 10 11 11 -19 8 -36 -3z"/>
<path d="M2611 4634 c0 -11 3 -14 6 -6 3 7 2 16 -1 19 -3 4 -6 -2 -5 -13z"/>
<path d="M2646 4595 c-9 -26 -7 -32 5 -12 6 10 9 21 6 23 -2 3 -7 -2 -11 -11z"/>
<path d="M2735 4169 c-4 -6 -5 -12 -2 -15 2 -3 7 2 10 11 7 17 1 20 -8 4z"/>
<path d="M2685 4100 c-3 -5 -1 -10 4 -10 6 0 11 5 11 10 0 6 -2 10 -4 10 -3 0
-8 -4 -11 -10z"/>
<path d="M4555 3684 c0 -13 3 -24 8 -24 4 0 7 9 7 19 0 11 -3 22 -7 24 -5 3
-8 -6 -8 -19z"/>
<path d="M163 3652 l-163 -2 0 -69 c0 -61 2 -69 22 -79 l23 -11 -23 0 c-17 -1
-22 -6 -20 -18 2 -13 13 -18 37 -18 31 0 66 -28 56 -45 -2 -4 32 -8 76 -9 44
-1 87 -5 95 -8 25 -9 15 -20 -18 -20 -18 0 -81 -3 -140 -7 -80 -6 -108 -11
-108 -21 0 -8 8 -16 18 -19 38 -12 139 -24 162 -20 34 6 55 -9 43 -31 -5 -9
-14 -17 -19 -17 -5 0 -20 -5 -34 -10 -16 -6 -52 -7 -97 -1 l-73 9 0 -38 c0
-33 3 -38 23 -39 12 0 31 -2 42 -4 10 -2 25 1 32 7 10 8 19 6 34 -8 13 -11 38
-20 63 -21 22 -1 55 -4 71 -6 95 -14 165 -11 165 8 0 11 5 12 24 5 21 -8 41
-8 89 -1 5 0 5 6 2 11 -4 6 5 5 20 -2 21 -9 31 -9 46 0 26 17 28 16 40 -15 7
-18 13 -23 18 -15 4 6 24 14 44 16 28 4 36 2 30 -7 -4 -8 -1 -7 10 1 9 8 42
16 73 18 45 3 55 1 51 -10 -8 -20 36 -23 263 -19 265 5 410 4 432 -3 15 -4 18
-13 14 -36 -2 -16 -7 -32 -10 -35 -5 -5 -90 -30 -123 -37 -7 -1 -21 -10 -32
-20 -26 -23 -171 -36 -254 -23 -23 4 -30 0 -38 -20 -6 -16 -13 -22 -21 -16
-23 14 -43 13 -55 -4 -8 -10 -13 -12 -13 -5 0 7 -5 12 -10 12 -6 0 -5 -8 2
-19 7 -11 15 -18 19 -15 4 2 18 0 32 -5 18 -7 28 -6 39 5 13 13 16 13 27 0 16
-19 12 -21 -89 -36 -41 -6 -86 -12 -100 -14 -14 -2 -37 -7 -52 -11 -17 -4 -28
-3 -28 3 0 5 -19 9 -42 8 -31 -1 -42 -5 -44 -18 -1 -10 5 -22 14 -28 10 -5 12
-10 5 -10 -19 0 -28 4 -26 13 3 8 -10 9 -31 1 -8 -3 -13 -13 -10 -22 5 -15 4
-15 -8 -2 -14 17 -49 21 -59 7 -4 -5 -26 -12 -50 -14 -51 -6 -65 -13 -26 -13
35 0 35 -16 0 -23 -18 -3 -39 2 -58 13 -32 19 -61 19 -79 -1 -8 -9 -7 -10 4
-4 12 6 12 5 3 -5 -7 -8 -19 -10 -30 -5 -10 5 -21 8 -25 7 -12 -2 -2 30 13 39
9 6 4 8 -19 5 -18 -2 -36 -7 -40 -11 -4 -5 1 -5 11 -2 10 4 16 3 12 -2 -3 -6
-14 -9 -25 -8 -10 1 -17 4 -14 8 2 4 -5 11 -17 14 -11 4 -18 13 -15 20 5 14
-29 10 -49 -6 -6 -4 -17 -4 -25 1 -17 11 -30 4 -30 -16 0 -8 10 -14 25 -14 13
0 28 -7 33 -16 17 -31 62 -51 102 -47 21 3 47 0 57 -6 14 -8 0 -10 -59 -9 -42
1 -81 -2 -85 -7 -5 -4 -2 -5 6 0 10 6 12 4 7 -4 -5 -8 -19 -10 -37 -6 -32 7
-69 -1 -69 -16 0 -6 6 -7 13 -3 8 5 9 4 2 -4 -13 -14 -156 -25 -174 -13 -23
15 -41 -13 -41 -62 0 -42 18 -75 33 -60 6 6 66 8 85 3 4 -1 10 -2 15 -1 4 1 2
-8 -5 -19 -10 -16 -20 -19 -48 -15 -84 12 -75 69 -78 -458 l-2 -468 42 25 c24
14 66 30 93 37 49 12 146 60 212 105 18 12 55 28 82 35 30 7 47 17 45 24 -3 7
6 20 20 29 38 25 32 36 -21 36 -54 0 -98 18 -98 40 0 8 22 26 49 40 27 14 51
31 54 38 5 17 -38 52 -63 50 -11 0 -37 7 -58 16 -21 9 -51 19 -68 23 -16 3
-29 12 -29 19 0 7 -17 18 -37 24 -21 5 -45 14 -53 20 -13 8 -12 10 5 11 11 0
28 2 37 4 9 2 28 -3 43 -11 14 -7 40 -16 58 -19 58 -11 62 -12 89 -19 21 -6
35 -2 62 19 20 15 36 33 36 40 0 7 33 25 72 40 40 15 89 34 108 43 l35 17 -50
3 c-76 4 -95 10 -88 28 4 10 1 15 -8 14 -31 -5 -49 1 -49 15 0 8 -6 15 -14 15
-7 0 -20 9 -27 20 -10 14 -29 21 -63 25 -66 6 -67 11 -1 19 59 7 131 44 196
102 20 17 46 35 57 38 11 4 39 25 61 46 23 22 48 40 56 40 8 0 15 9 15 20 0
10 8 24 18 29 10 7 12 11 4 11 -22 0 -10 44 13 48 11 2 35 10 53 18 82 38 172
67 227 74 33 5 86 15 118 24 32 9 74 16 93 16 19 0 69 11 112 25 42 13 90 27
107 30 16 4 46 24 66 45 42 44 146 94 198 94 19 1 36 7 38 14 3 8 -8 12 -36
12 -51 0 -60 15 -20 35 40 21 28 33 -36 37 -33 2 -49 7 -48 16 2 6 -2 13 -7
13 -6 1 -13 2 -17 3 -5 1 -51 6 -103 10 -70 6 -105 14 -135 31 -22 13 -61 26
-88 29 -64 9 -97 22 -97 41 0 15 -8 16 -107 20 -40 1 -57 15 -19 15 20 0 27 4
23 14 -3 7 0 19 6 25 9 9 -3 12 -48 12 -95 0 -154 13 -170 39 -3 5 -11 8 -16
5 -5 -4 -9 -2 -9 4 0 5 -10 11 -22 13 -34 5 -35 34 -1 43 15 3 28 6 28 4 0 -1
10 3 23 10 14 7 22 8 22 1 0 -13 27 -13 32 0 2 5 30 12 63 15 33 3 65 11 70
17 12 15 3 14 144 27 62 6 117 8 122 5 5 -3 9 -14 9 -25 0 -16 -7 -19 -50 -19
-37 0 -50 -4 -50 -14 0 -10 17 -17 55 -21 45 -6 59 -4 74 9 13 12 21 14 26 7
3 -6 18 -11 33 -11 l26 0 -35 26 c-19 15 -26 24 -17 21 11 -4 21 1 28 13 6 12
20 19 38 19 71 -2 239 9 254 16 10 4 16 11 13 15 -3 5 5 18 17 30 l23 21 -760
-3 c-418 -2 -833 -4 -922 -6z m-9 -198 c9 -3 13 -10 10 -15 -9 -14 -41 -10
-48 6 -6 16 10 20 38 9z m678 -60 c28 -26 12 -34 -38 -19 -53 16 -59 20 -49
35 10 15 63 5 87 -16z m-534 -123 c10 -6 8 -10 -9 -14 -26 -7 -42 0 -34 14 8
11 26 11 43 0z m82 -1 c0 -5 -13 -10 -30 -10 -16 0 -30 5 -30 10 0 6 14 10 30
10 17 0 30 -4 30 -10z m203 -7 c-7 -2 -19 -2 -25 0 -7 3 -2 5 12 5 14 0 19 -2
13 -5z m637 -312 c0 -11 -3 -12 -11 -4 -6 6 -18 9 -25 6 -8 -3 -14 0 -14 6 0
6 11 10 25 9 14 -1 25 -9 25 -17z m34 -32 c-3 -5 -13 -9 -22 -8 -11 0 -12 2
-4 6 6 2 10 9 7 14 -4 5 1 6 9 3 9 -3 13 -10 10 -15z m-1164 -339 c12 -8 9
-10 -13 -10 -16 0 -26 4 -22 10 8 12 16 12 35 0z m110 -180 c20 -7 16 -8 -22
-9 -26 -1 -50 4 -53 9 -7 12 38 12 75 0z m-70 -238 c23 -13 22 -13 -25 -7 -58
8 -72 14 -55 25 14 9 44 2 80 -18z"/>
<path d="M1850 3652 c0 -4 14 -9 32 -10 37 -3 33 7 -6 14 -14 2 -26 1 -26 -4z"/>
<path d="M2130 3650 c0 -5 5 -10 11 -10 5 0 7 5 4 10 -3 6 -8 10 -11 10 -2 0
-4 -4 -4 -10z"/>
<path d="M1535 3530 c-3 -5 1 -10 9 -10 9 0 16 5 16 10 0 6 -4 10 -9 10 -6 0
-13 -4 -16 -10z"/>
<path d="M1397 3442 c-9 -2 -17 -10 -17 -18 0 -9 -5 -12 -12 -8 -7 5 -8 3 -3
-6 6 -10 11 -9 22 5 7 11 13 13 13 6 0 -7 4 -10 9 -6 5 3 13 1 16 -5 4 -7 11
-8 18 -2 7 6 20 11 30 13 33 7 18 23 -21 23 -21 1 -46 0 -55 -2z"/>
<path d="M1322 3339 c15 -9 115 -6 124 3 2 2 -29 4 -69 5 -51 1 -67 -1 -55 -8z"/>
<path d="M4990 3163 c12 -16 39 -56 62 -90 22 -35 44 -63 50 -63 5 0 7 -3 5
-7 -3 -5 1 -21 7 -38 l13 -30 -3 42 c-3 55 -25 98 -48 96 -13 -1 -16 4 -12 20
4 16 -5 31 -36 59 -48 44 -69 50 -38 11z"/>
<path d="M837 3149 c7 -7 15 -10 18 -7 3 3 -2 9 -12 12 -14 6 -15 5 -6 -5z"/>
<path d="M500 3097 c0 -4 27 -7 60 -5 33 2 60 7 60 11 0 5 -27 7 -60 5 -33 -1
-60 -6 -60 -11z"/>
<path d="M704 3098 c-4 -6 -3 -8 4 -4 5 3 12 1 14 -6 3 -8 6 -9 11 -1 4 6 0
13 -8 17 -8 3 -17 0 -21 -6z"/>
<path d="M123 3070 c-25 -10 -27 -17 -14 -39 7 -10 20 -12 50 -7 22 3 61 2 86
-4 34 -8 53 -7 78 3 41 17 49 18 66 4 16 -14 43 -18 35 -6 -3 5 -9 7 -14 4 -5
-3 -11 -1 -15 5 -3 5 -1 10 5 10 6 0 8 5 5 10 -4 6 -16 8 -27 5 -12 -4 -27 0
-38 10 -15 13 -25 15 -47 8 -15 -5 -46 -6 -68 -2 -52 10 -75 10 -102 -1z"/>
<path d="M586 3028 c3 -5 10 -6 15 -3 13 9 11 12 -6 12 -8 0 -12 -4 -9 -9z"/>
<path d="M2930 3025 c0 -6 38 -45 45 -45 3 0 5 3 5 8 -1 8 -50 46 -50 37z"/>
<path d="M4156 2984 c-5 -14 0 -25 20 -41 16 -12 31 -19 34 -16 3 3 0 8 -6 10
-6 2 -20 10 -30 18 -18 13 -18 14 4 8 13 -3 22 -1 22 6 0 7 -4 10 -9 6 -6 -3
-14 2 -19 11 -8 15 -10 14 -16 -2z"/>
<path d="M4001 2977 c-8 -10 -7 -14 4 -14 8 0 12 4 9 8 -2 4 4 10 13 12 15 4
15 5 2 6 -9 0 -22 -5 -28 -12z"/>
<path d="M486 2965 c3 -7 12 -16 19 -19 9 -3 12 0 9 9 -3 7 -12 16 -19 19 -9
3 -12 0 -9 -9z"/>
<path d="M545 2950 c-19 -8 -19 -9 3 -9 12 -1 22 4 22 9 0 6 -1 10 -2 9 -2 0
-12 -4 -23 -9z"/>
<path d="M723 2933 c-25 -9 -13 -22 14 -17 15 3 29 7 31 8 5 6 -33 13 -45 9z"/>
<path d="M3752 2880 c0 -14 2 -19 5 -12 2 6 2 18 0 25 -3 6 -5 1 -5 -13z"/>
<path d="M4370 2880 c0 -6 7 -10 15 -10 8 0 15 2 15 4 0 2 -7 6 -15 10 -8 3
-15 1 -15 -4z"/>
<path d="M677 2839 c7 -7 15 -10 18 -7 3 3 -2 9 -12 12 -14 6 -15 5 -6 -5z"/>
<path d="M4897 2836 c-36 -16 -47 -33 -47 -73 0 -24 5 -33 17 -33 19 0 105 90
100 105 -5 15 -38 15 -70 1z"/>
<path d="M2776 2781 c-11 -17 26 -36 64 -32 11 1 9 7 -9 21 -25 21 -46 26 -55
11z"/>
<path d="M20 2765 c0 -20 17 -27 38 -16 13 7 22 7 30 -1 12 -12 62 -3 62 12 0
6 -21 10 -47 11 -27 0 -56 2 -65 4 -10 2 -18 -3 -18 -10z"/>
<path d="M1050 2760 c0 -5 7 -10 16 -10 8 0 12 5 9 10 -3 6 -10 10 -16 10 -5
0 -9 -4 -9 -10z"/>
<path d="M2673 2739 c17 -10 15 -29 -4 -29 -6 0 -7 5 -3 12 5 8 2 9 -10 5 -9
-4 -15 -3 -11 2 3 6 -29 9 -77 7 -64 -1 -83 -5 -83 -16 0 -8 11 -17 25 -21 14
-4 19 -8 13 -9 -32 -6 -39 -6 -53 1 -9 4 -24 1 -35 -7 -14 -10 -39 -14 -80
-12 -60 3 -85 -4 -85 -23 0 -6 5 -7 10 -4 6 3 10 2 10 -3 0 -15 96 -7 116 9
15 12 17 12 9 0 -6 -10 -4 -12 5 -6 7 4 45 7 85 7 53 0 75 3 79 13 6 17 35 13
47 -6 13 -20 11 -31 -3 -23 -10 6 -10 4 0 -8 7 -9 21 -15 30 -14 23 4 29 34 6
32 -9 0 -19 5 -22 12 -3 10 4 13 24 10 16 -2 28 -8 27 -13 -1 -6 8 -12 20 -12
12 -1 33 -5 45 -8 l24 -6 -21 29 c-18 25 -19 32 -7 41 11 10 15 8 18 -6 3 -15
5 -14 10 5 4 13 4 21 1 18 -4 -3 -13 0 -21 7 -13 9 -14 9 -8 0 12 -21 -22 -15
-46 7 -12 11 -29 20 -37 20 -13 -1 -13 -2 2 -11z m-78 -43 c-31 -13 -55 -11
-55 5 0 5 19 9 43 9 l42 -1 -30 -13z"/>
<path d="M4361 2714 c0 -11 3 -14 6 -6 3 7 2 16 -1 19 -3 4 -6 -2 -5 -13z"/>
<path d="M30 2710 c-20 -12 -5 -24 16 -12 9 5 12 12 7 15 -5 3 -15 2 -23 -3z"/>
<path d="M2796 2701 c-4 -7 -5 -15 -2 -18 9 -9 19 4 14 18 -4 11 -6 11 -12 0z"/>
<path d="M2863 2695 c-12 -8 -23 -12 -26 -7 -2 4 -2 1 -1 -5 2 -7 -2 -13 -8
-13 -6 0 -8 -3 -5 -7 4 -3 17 2 28 13 22 19 22 19 10 -3 -9 -17 -9 -23 0 -23
6 0 9 -6 6 -13 -3 -8 5 -14 24 -15 20 -2 29 2 29 12 0 8 5 18 12 22 7 5 8 3 3
-7 -5 -8 1 -5 13 5 25 22 27 28 10 24 -17 -3 -61 12 -68 23 -4 5 -16 2 -27 -6z"/>
<path d="M2160 2648 c0 -6 3 -9 6 -6 3 4 18 3 33 -2 17 -5 33 -3 44 5 13 10 8
12 -33 13 -31 0 -50 -3 -50 -10z"/>
<path d="M2025 2640 c-3 -5 1 -10 10 -10 9 0 13 5 10 10 -3 6 -8 10 -10 10 -2
0 -7 -4 -10 -10z"/>
<path d="M4706 2621 c-11 -4 -15 -10 -10 -13 5 -4 18 0 29 8 20 15 12 17 -19
5z"/>
<path d="M2476 2612 c-3 -5 1 -9 9 -9 8 0 12 4 9 9 -3 4 -7 8 -9 8 -2 0 -6 -4
-9 -8z"/>
<path d="M4325 2610 l-30 -8 28 -1 c15 0 30 -1 34 -2 4 0 9 4 11 10 4 12 1 12
-43 1z"/>
<path d="M2740 2570 c0 -5 5 -10 11 -10 5 0 7 5 4 10 -3 6 -8 10 -11 10 -2 0
-4 -4 -4 -10z"/>
<path d="M4510 2560 c0 -5 5 -10 10 -10 6 0 10 5 10 10 0 6 -4 10 -10 10 -5 0
-10 -4 -10 -10z"/>
<path d="M3036 2523 c-6 -14 -5 -15 5 -6 7 7 10 15 7 18 -3 3 -9 -2 -12 -12z"/>
<path d="M2585 2481 c-3 -5 -1 -12 4 -16 6 -3 8 -13 5 -23 -4 -10 -3 -13 3 -6
4 6 15 10 23 9 9 -2 17 5 17 16 2 24 -15 35 -23 15 -3 -9 -10 -13 -15 -10 -5
3 -7 10 -4 15 4 5 4 9 1 9 -3 0 -7 -4 -11 -9z m36 -24 c-10 -9 -11 -8 -5 6 3
10 9 15 12 12 3 -3 0 -11 -7 -18z"/>
<path d="M2024 2448 c6 -40 29 -44 39 -8 3 11 1 18 -4 14 -5 -3 -9 -12 -9 -20
0 -8 -5 -12 -10 -9 -6 4 -8 10 -5 15 3 5 1 11 -4 14 -5 4 -8 0 -7 -6z"/>
<path d="M2447 2437 c-3 -8 1 -14 8 -14 7 0 11 6 8 14 -3 7 -6 13 -8 13 -2 0
-5 -6 -8 -13z"/>
<path d="M1986 2418 c3 -5 10 -6 15 -3 13 9 11 12 -6 12 -8 0 -12 -4 -9 -9z"/>
<path d="M1295 2401 c4 -8 -2 -10 -19 -7 -20 4 -26 1 -26 -14 0 -10 5 -22 10
-25 6 -4 10 -3 9 2 -5 27 1 33 22 22 15 -8 19 -8 15 0 -4 6 -3 11 3 11 5 0 14
-8 20 -17 9 -16 10 -15 8 4 0 12 -3 20 -5 18 -3 -2 -14 0 -25 6 -14 8 -18 8
-12 0z"/>
<path d="M1381 2394 c0 -11 3 -14 6 -6 3 7 2 16 -1 19 -3 4 -6 -2 -5 -13z"/>
<path d="M1406 2397 c3 -10 9 -15 12 -12 3 3 0 11 -7 18 -10 9 -11 8 -5 -6z"/>
<path d="M786 2323 c-6 -14 -5 -15 5 -6 7 7 10 15 7 18 -3 3 -9 -2 -12 -12z"/>
<path d="M4 1497 c-3 -8 -4 -32 -2 -52 l3 -37 26 21 c15 11 29 17 33 14 3 -3
6 -1 6 5 0 6 9 14 21 17 26 9 22 12 -21 20 -19 3 -40 11 -47 17 -9 7 -14 6
-19 -5z"/>
<path d="M4 1325 c-9 -21 -2 -26 13 -10 8 9 9 16 3 20 -6 3 -13 -1 -16 -10z"/>
<path d="M1675 650 c-3 -5 -13 -7 -23 -4 -10 4 -13 2 -7 -3 6 -4 13 -12 17
-16 3 -5 11 1 18 12 10 21 7 30 -5 11z"/>
<path d="M1703 648 c-24 -31 -25 -42 -3 -23 l23 20 -13 -25 c-12 -24 -11 -24
5 -9 12 12 14 22 8 34 -8 13 -11 14 -20 3z"/>
<path d="M1870 515 c-7 -9 -8 -15 -2 -15 5 0 12 7 16 15 3 8 4 15 2 15 -2 0
-9 -7 -16 -15z"/>
<path d="M1868 482 c-10 -2 -18 -10 -18 -17 0 -8 -4 -16 -9 -19 -5 -4 -7 4 -4
16 4 20 3 21 -7 5 -6 -9 -15 -15 -19 -13 -4 3 -12 -4 -19 -15 -11 -17 -9 -19
22 -19 19 0 37 6 39 13 3 6 6 3 6 -7 1 -11 4 -16 7 -13 8 8 46 -61 40 -71 -2
-4 8 -8 22 -7 15 0 30 7 33 15 15 38 -57 140 -93 132z"/>
<path d="M1910 309 c0 -5 5 -7 10 -4 6 3 10 8 10 11 0 2 -4 4 -10 4 -5 0 -10
-5 -10 -11z"/>
<path d="M1246 291 c4 -16 3 -21 -5 -17 -14 9 -14 -14 -1 -34 8 -12 10 -12 10
5 0 11 4 26 9 33 7 11 11 11 24 -2 13 -14 16 -14 21 0 3 8 2 12 -4 9 -6 -3
-10 -1 -10 5 0 6 -4 8 -10 5 -5 -3 -10 0 -10 7 0 10 -2 10 -9 -1 -7 -11 -10
-11 -15 0 -3 8 -3 3 0 -10z"/>
<path d="M1191 211 c8 -11 16 -17 19 -12 3 4 12 11 20 14 10 5 9 6 -5 4 -11
-1 -26 2 -33 7 -11 7 -11 4 -1 -13z"/>
<path d="M1248 208 c-7 -17 15 -19 29 -3 4 4 3 5 -4 2 -6 -4 -13 -2 -15 5 -3
8 -6 6 -10 -4z"/>
<path d="M1294 198 c1 -34 2 -34 17 -7 6 13 7 19 1 15 -6 -3 -12 0 -15 6 -2 7
-4 1 -3 -14z"/>
<path d="M2216 175 c3 -22 8 -42 10 -44 9 -9 3 55 -6 69 -7 11 -8 3 -4 -25z"/>
<path d="M1187 175 c6 -32 11 -41 17 -34 2 2 -2 18 -10 34 l-13 30 6 -30z"/>
<path d="M1347 186 c-4 -9 -3 -15 2 -11 5 3 11 0 13 -7 3 -7 7 -5 11 6 4 9 3
15 -2 11 -5 -3 -11 0 -13 7 -3 7 -7 5 -11 -6z"/>
<path d="M1386 157 c3 -10 9 -15 12 -12 3 3 0 11 -7 18 -10 9 -11 8 -5 -6z"/>
<path d="M2165 106 c3 -22 8 -42 10 -45 9 -8 4 43 -6 64 -6 15 -7 9 -4 -19z"/>
<path d="M2191 114 c0 -11 3 -14 6 -6 3 7 2 16 -1 19 -3 4 -6 -2 -5 -13z"/>
<path d="M1340 70 c0 -8 5 -22 10 -30 9 -13 10 -13 10 0 0 8 -5 22 -10 30 -9
13 -10 13 -10 0z"/>
<path d="M2121 68 c1 -19 17 -55 18 -40 1 7 6 10 11 7 6 -4 10 5 10 19 0 19
-5 26 -20 26 -11 0 -20 -6 -19 -12z"/>
<path d="M1317 28 c-4 -12 -4 -24 -2 -27 3 -2 5 1 5 9 0 10 3 10 14 1 12 -10
13 -8 9 9 -8 29 -20 33 -26 8z"/>
<path d="M2097 20 c-3 -13 0 -20 9 -20 8 0 14 9 14 20 0 11 -4 20 -9 20 -5 0
-11 -9 -14 -20z"/>
<path d="M2370 21 c0 -5 5 -13 10 -16 6 -3 10 -2 10 4 0 5 -4 13 -10 16 -5 3
-10 2 -10 -4z"/>
<path d="M4130 19 c0 -6 -8 -8 -19 -4 -11 3 -22 1 -26 -5 -4 -6 16 -10 59 -10
37 0 68 5 72 11 4 8 -1 9 -16 4 -15 -5 -20 -4 -16 4 5 7 -4 11 -23 11 -17 0
-31 -5 -31 -11z"/>
<path d="M4307 24 c-13 -13 5 -24 22 -14 10 5 22 6 26 2 5 -4 5 -1 1 6 -8 13
-38 16 -49 6z"/>
<path d="M1665 10 c-3 -5 -1 -10 4 -10 6 0 11 5 11 10 0 6 -2 10 -4 10 -3 0
-8 -4 -11 -10z"/>
<path d="M1738 3 c6 -2 18 -2 25 0 6 3 1 5 -13 5 -14 0 -19 -2 -12 -5z"/>
</g>
</svg>
